ISO-10303-21;
HEADER;
/* Generated by software containing ST-Developer
 * from STEP Tools, Inc. (www.steptools.com) 
 */

FILE_DESCRIPTION(
/* description */ (''),
/* implementation_level */ '2;1');

FILE_NAME(
/* name */ 'R_case_center_ioboard.step',
/* time_stamp */ '2026-01-16T22:26:30+01:00',
/* author */ (''),
/* organization */ (''),
/* preprocessor_version */ 'ST-DEVELOPER v20.1',
/* originating_system */ 'Autodesk Translation Framework v14.21.0.0',
/* authorisation */ '');

FILE_SCHEMA (('AUTOMOTIVE_DESIGN { 1 0 10303 214 3 1 1 }'));
ENDSEC;

DATA;
#10=MECHANICAL_DESIGN_GEOMETRIC_PRESENTATION_REPRESENTATION('',(#13),#1497);
#11=SHAPE_REPRESENTATION_RELATIONSHIP('SRR','None',#1504,#12);
#12=ADVANCED_BREP_SHAPE_REPRESENTATION('',(#14),#1496);
#13=STYLED_ITEM('',(#1513),#14);
#14=MANIFOLD_SOLID_BREP('Body1',#901);
#15=CYLINDRICAL_SURFACE('',#936,2.34999999999999);
#16=CYLINDRICAL_SURFACE('',#939,2.34999999999999);
#17=CYLINDRICAL_SURFACE('',#942,2.34999999999999);
#18=CYLINDRICAL_SURFACE('',#945,2.34999999999999);
#19=CYLINDRICAL_SURFACE('',#971,3.4);
#20=CYLINDRICAL_SURFACE('',#972,3.4);
#21=CYLINDRICAL_SURFACE('',#974,3.4);
#22=CYLINDRICAL_SURFACE('',#975,3.4);
#23=CYLINDRICAL_SURFACE('',#977,3.4);
#24=CYLINDRICAL_SURFACE('',#978,3.4);
#25=FACE_BOUND('',#287,.T.);
#26=FACE_BOUND('',#288,.T.);
#27=FACE_BOUND('',#289,.T.);
#28=FACE_BOUND('',#290,.T.);
#29=FACE_BOUND('',#296,.T.);
#30=FACE_BOUND('',#299,.T.);
#31=FACE_BOUND('',#302,.T.);
#32=FACE_BOUND('',#305,.T.);
#33=FACE_BOUND('',#307,.T.);
#34=FACE_BOUND('',#308,.T.);
#35=FACE_BOUND('',#309,.T.);
#36=FACE_BOUND('',#317,.T.);
#37=FACE_BOUND('',#318,.T.);
#38=FACE_BOUND('',#321,.T.);
#39=FACE_BOUND('',#322,.T.);
#40=FACE_BOUND('',#324,.T.);
#41=FACE_BOUND('',#328,.T.);
#42=FACE_BOUND('',#350,.T.);
#43=FACE_BOUND('',#351,.T.);
#44=FACE_BOUND('',#352,.T.);
#45=LINE('',#1264,#135);
#46=LINE('',#1269,#136);
#47=LINE('',#1271,#137);
#48=LINE('',#1273,#138);
#49=LINE('',#1275,#139);
#50=LINE('',#1277,#140);
#51=LINE('',#1279,#141);
#52=LINE('',#1281,#142);
#53=LINE('',#1283,#143);
#54=LINE('',#1285,#144);
#55=LINE('',#1287,#145);
#56=LINE('',#1289,#146);
#57=LINE('',#1290,#147);
#58=LINE('',#1299,#148);
#59=LINE('',#1303,#149);
#60=LINE('',#1307,#150);
#61=LINE('',#1312,#151);
#62=LINE('',#1317,#152);
#63=LINE('',#1322,#153);
#64=LINE('',#1327,#154);
#65=LINE('',#1332,#155);
#66=LINE('',#1334,#156);
#67=LINE('',#1336,#157);
#68=LINE('',#1338,#158);
#69=LINE('',#1340,#159);
#70=LINE('',#1341,#160);
#71=LINE('',#1343,#161);
#72=LINE('',#1345,#162);
#73=LINE('',#1347,#163);
#74=LINE('',#1349,#164);
#75=LINE('',#1350,#165);
#76=LINE('',#1359,#166);
#77=LINE('',#1360,#167);
#78=LINE('',#1363,#168);
#79=LINE('',#1364,#169);
#80=LINE('',#1367,#170);
#81=LINE('',#1369,#171);
#82=LINE('',#1371,#172);
#83=LINE('',#1373,#173);
#84=LINE('',#1375,#174);
#85=LINE('',#1376,#175);
#86=LINE('',#1379,#176);
#87=LINE('',#1380,#177);
#88=LINE('',#1383,#178);
#89=LINE('',#1384,#179);
#90=LINE('',#1388,#180);
#91=LINE('',#1390,#181);
#92=LINE('',#1392,#182);
#93=LINE('',#1393,#183);
#94=LINE('',#1396,#184);
#95=LINE('',#1398,#185);
#96=LINE('',#1399,#186);
#97=LINE('',#1406,#187);
#98=LINE('',#1408,#188);
#99=LINE('',#1409,#189);
#100=LINE('',#1411,#190);
#101=LINE('',#1412,#191);
#102=LINE('',#1420,#192);
#103=LINE('',#1421,#193);
#104=LINE('',#1422,#194);
#105=LINE('',#1427,#195);
#106=LINE('',#1428,#196);
#107=LINE('',#1431,#197);
#108=LINE('',#1432,#198);
#109=LINE('',#1434,#199);
#110=LINE('',#1438,#200);
#111=LINE('',#1442,#201);
#112=LINE('',#1444,#202);
#113=LINE('',#1448,#203);
#114=LINE('',#1450,#204);
#115=LINE('',#1454,#205);
#116=LINE('',#1457,#206);
#117=LINE('',#1458,#207);
#118=LINE('',#1461,#208);
#119=LINE('',#1462,#209);
#120=LINE('',#1464,#210);
#121=LINE('',#1466,#211);
#122=LINE('',#1468,#212);
#123=LINE('',#1470,#213);
#124=LINE('',#1472,#214);
#125=LINE('',#1473,#215);
#126=LINE('',#1475,#216);
#127=LINE('',#1479,#217);
#128=LINE('',#1480,#218);
#129=LINE('',#1483,#219);
#130=LINE('',#1484,#220);
#131=LINE('',#1487,#221);
#132=LINE('',#1488,#222);
#133=LINE('',#1490,#223);
#134=LINE('',#1492,#224);
#135=VECTOR('',#1017,6.00000000000001);
#136=VECTOR('',#1022,10.);
#137=VECTOR('',#1023,10.);
#138=VECTOR('',#1024,10.);
#139=VECTOR('',#1025,10.);
#140=VECTOR('',#1026,10.);
#141=VECTOR('',#1027,10.);
#142=VECTOR('',#1028,10.);
#143=VECTOR('',#1029,10.);
#144=VECTOR('',#1030,10.);
#145=VECTOR('',#1031,10.);
#146=VECTOR('',#1032,10.);
#147=VECTOR('',#1033,10.);
#148=VECTOR('',#1042,6.);
#149=VECTOR('',#1047,6.);
#150=VECTOR('',#1052,6.00000000000001);
#151=VECTOR('',#1059,2.34999999999999);
#152=VECTOR('',#1066,2.34999999999999);
#153=VECTOR('',#1073,2.34999999999999);
#154=VECTOR('',#1080,2.34999999999999);
#155=VECTOR('',#1085,10.);
#156=VECTOR('',#1086,10.);
#157=VECTOR('',#1087,10.);
#158=VECTOR('',#1088,10.);
#159=VECTOR('',#1089,10.);
#160=VECTOR('',#1090,10.);
#161=VECTOR('',#1091,10.);
#162=VECTOR('',#1092,10.);
#163=VECTOR('',#1093,10.);
#164=VECTOR('',#1094,10.);
#165=VECTOR('',#1095,10.);
#166=VECTOR('',#1104,10.);
#167=VECTOR('',#1105,10.);
#168=VECTOR('',#1108,10.);
#169=VECTOR('',#1109,10.);
#170=VECTOR('',#1112,10.);
#171=VECTOR('',#1113,10.);
#172=VECTOR('',#1114,10.);
#173=VECTOR('',#1115,10.);
#174=VECTOR('',#1116,10.);
#175=VECTOR('',#1117,10.);
#176=VECTOR('',#1120,10.);
#177=VECTOR('',#1121,10.);
#178=VECTOR('',#1124,10.);
#179=VECTOR('',#1125,10.);
#180=VECTOR('',#1128,10.);
#181=VECTOR('',#1129,10.);
#182=VECTOR('',#1130,10.);
#183=VECTOR('',#1131,10.);
#184=VECTOR('',#1134,10.);
#185=VECTOR('',#1135,10.);
#186=VECTOR('',#1136,10.);
#187=VECTOR('',#1143,10.);
#188=VECTOR('',#1144,10.);
#189=VECTOR('',#1145,10.);
#190=VECTOR('',#1148,10.);
#191=VECTOR('',#1149,10.);
#192=VECTOR('',#1156,10.);
#193=VECTOR('',#1157,10.);
#194=VECTOR('',#1158,10.);
#195=VECTOR('',#1163,10.);
#196=VECTOR('',#1164,10.);
#197=VECTOR('',#1167,10.);
#198=VECTOR('',#1168,10.);
#199=VECTOR('',#1171,10.);
#200=VECTOR('',#1176,3.4);
#201=VECTOR('',#1181,3.4);
#202=VECTOR('',#1184,3.4);
#203=VECTOR('',#1189,3.4);
#204=VECTOR('',#1192,3.4);
#205=VECTOR('',#1197,3.4);
#206=VECTOR('',#1200,10.);
#207=VECTOR('',#1201,10.);
#208=VECTOR('',#1204,10.);
#209=VECTOR('',#1205,10.);
#210=VECTOR('',#1208,10.);
#211=VECTOR('',#1211,10.);
#212=VECTOR('',#1214,10.);
#213=VECTOR('',#1217,10.);
#214=VECTOR('',#1220,10.);
#215=VECTOR('',#1221,10.);
#216=VECTOR('',#1224,10.);
#217=VECTOR('',#1229,10.);
#218=VECTOR('',#1230,10.);
#219=VECTOR('',#1233,10.);
#220=VECTOR('',#1234,10.);
#221=VECTOR('',#1237,10.);
#222=VECTOR('',#1238,10.);
#223=VECTOR('',#1241,10.);
#224=VECTOR('',#1244,10.);
#225=CONICAL_SURFACE('',#923,6.00000000000001,0.588002603547574);
#226=CONICAL_SURFACE('',#930,6.,0.588002603547566);
#227=CONICAL_SURFACE('',#932,6.,0.588002603547566);
#228=CONICAL_SURFACE('',#934,6.00000000000001,0.588002603547574);
#229=FACE_OUTER_BOUND('',#281,.T.);
#230=FACE_OUTER_BOUND('',#282,.T.);
#231=FACE_OUTER_BOUND('',#283,.T.);
#232=FACE_OUTER_BOUND('',#284,.T.);
#233=FACE_OUTER_BOUND('',#285,.T.);
#234=FACE_OUTER_BOUND('',#286,.T.);
#235=FACE_OUTER_BOUND('',#291,.T.);
#236=FACE_OUTER_BOUND('',#292,.T.);
#237=FACE_OUTER_BOUND('',#293,.T.);
#238=FACE_OUTER_BOUND('',#294,.T.);
#239=FACE_OUTER_BOUND('',#295,.T.);
#240=FACE_OUTER_BOUND('',#297,.T.);
#241=FACE_OUTER_BOUND('',#298,.T.);
#242=FACE_OUTER_BOUND('',#300,.T.);
#243=FACE_OUTER_BOUND('',#301,.T.);
#244=FACE_OUTER_BOUND('',#303,.T.);
#245=FACE_OUTER_BOUND('',#304,.T.);
#246=FACE_OUTER_BOUND('',#306,.T.);
#247=FACE_OUTER_BOUND('',#310,.T.);
#248=FACE_OUTER_BOUND('',#311,.T.);
#249=FACE_OUTER_BOUND('',#312,.T.);
#250=FACE_OUTER_BOUND('',#313,.T.);
#251=FACE_OUTER_BOUND('',#314,.T.);
#252=FACE_OUTER_BOUND('',#315,.T.);
#253=FACE_OUTER_BOUND('',#316,.T.);
#254=FACE_OUTER_BOUND('',#319,.T.);
#255=FACE_OUTER_BOUND('',#320,.T.);
#256=FACE_OUTER_BOUND('',#323,.T.);
#257=FACE_OUTER_BOUND('',#325,.T.);
#258=FACE_OUTER_BOUND('',#326,.T.);
#259=FACE_OUTER_BOUND('',#327,.T.);
#260=FACE_OUTER_BOUND('',#329,.T.);
#261=FACE_OUTER_BOUND('',#330,.T.);
#262=FACE_OUTER_BOUND('',#331,.T.);
#263=FACE_OUTER_BOUND('',#332,.T.);
#264=FACE_OUTER_BOUND('',#333,.T.);
#265=FACE_OUTER_BOUND('',#334,.T.);
#266=FACE_OUTER_BOUND('',#335,.T.);
#267=FACE_OUTER_BOUND('',#336,.T.);
#268=FACE_OUTER_BOUND('',#337,.T.);
#269=FACE_OUTER_BOUND('',#338,.T.);
#270=FACE_OUTER_BOUND('',#339,.T.);
#271=FACE_OUTER_BOUND('',#340,.T.);
#272=FACE_OUTER_BOUND('',#341,.T.);
#273=FACE_OUTER_BOUND('',#342,.T.);
#274=FACE_OUTER_BOUND('',#343,.T.);
#275=FACE_OUTER_BOUND('',#344,.T.);
#276=FACE_OUTER_BOUND('',#345,.T.);
#277=FACE_OUTER_BOUND('',#346,.T.);
#278=FACE_OUTER_BOUND('',#347,.T.);
#279=FACE_OUTER_BOUND('',#348,.T.);
#280=FACE_OUTER_BOUND('',#349,.T.);
#281=EDGE_LOOP('',(#575));
#282=EDGE_LOOP('',(#576));
#283=EDGE_LOOP('',(#577));
#284=EDGE_LOOP('',(#578));
#285=EDGE_LOOP('',(#579,#580,#581,#582));
#286=EDGE_LOOP('',(#583,#584,#585,#586,#587,#588,#589,#590,#591,#592,#593,
#594));
#287=EDGE_LOOP('',(#595));
#288=EDGE_LOOP('',(#596));
#289=EDGE_LOOP('',(#597));
#290=EDGE_LOOP('',(#598));
#291=EDGE_LOOP('',(#599,#600,#601,#602));
#292=EDGE_LOOP('',(#603,#604,#605,#606));
#293=EDGE_LOOP('',(#607,#608,#609,#610));
#294=EDGE_LOOP('',(#611,#612,#613,#614));
#295=EDGE_LOOP('',(#615));
#296=EDGE_LOOP('',(#616));
#297=EDGE_LOOP('',(#617,#618,#619,#620));
#298=EDGE_LOOP('',(#621));
#299=EDGE_LOOP('',(#622));
#300=EDGE_LOOP('',(#623,#624,#625,#626));
#301=EDGE_LOOP('',(#627));
#302=EDGE_LOOP('',(#628));
#303=EDGE_LOOP('',(#629,#630,#631,#632));
#304=EDGE_LOOP('',(#633));
#305=EDGE_LOOP('',(#634));
#306=EDGE_LOOP('',(#635,#636,#637,#638,#639,#640,#641,#642,#643,#644,#645,
#646));
#307=EDGE_LOOP('',(#647));
#308=EDGE_LOOP('',(#648));
#309=EDGE_LOOP('',(#649));
#310=EDGE_LOOP('',(#650,#651,#652,#653));
#311=EDGE_LOOP('',(#654,#655,#656,#657));
#312=EDGE_LOOP('',(#658,#659,#660,#661,#662,#663,#664,#665));
#313=EDGE_LOOP('',(#666,#667,#668,#669));
#314=EDGE_LOOP('',(#670,#671,#672,#673));
#315=EDGE_LOOP('',(#674,#675,#676,#677));
#316=EDGE_LOOP('',(#678,#679,#680,#681));
#317=EDGE_LOOP('',(#682));
#318=EDGE_LOOP('',(#683));
#319=EDGE_LOOP('',(#684,#685,#686,#687));
#320=EDGE_LOOP('',(#688,#689,#690,#691));
#321=EDGE_LOOP('',(#692));
#322=EDGE_LOOP('',(#693));
#323=EDGE_LOOP('',(#694,#695,#696,#697));
#324=EDGE_LOOP('',(#698));
#325=EDGE_LOOP('',(#699,#700,#701,#702));
#326=EDGE_LOOP('',(#703,#704,#705,#706));
#327=EDGE_LOOP('',(#707,#708,#709,#710));
#328=EDGE_LOOP('',(#711));
#329=EDGE_LOOP('',(#712,#713,#714,#715));
#330=EDGE_LOOP('',(#716,#717,#718,#719));
#331=EDGE_LOOP('',(#720,#721,#722,#723));
#332=EDGE_LOOP('',(#724,#725,#726,#727));
#333=EDGE_LOOP('',(#728,#729,#730,#731));
#334=EDGE_LOOP('',(#732,#733,#734,#735));
#335=EDGE_LOOP('',(#736,#737,#738,#739));
#336=EDGE_LOOP('',(#740,#741,#742,#743));
#337=EDGE_LOOP('',(#744,#745,#746,#747));
#338=EDGE_LOOP('',(#748,#749,#750,#751));
#339=EDGE_LOOP('',(#752,#753,#754,#755));
#340=EDGE_LOOP('',(#756,#757,#758,#759));
#341=EDGE_LOOP('',(#760,#761,#762,#763));
#342=EDGE_LOOP('',(#764,#765,#766,#767));
#343=EDGE_LOOP('',(#768,#769,#770,#771));
#344=EDGE_LOOP('',(#772,#773,#774,#775));
#345=EDGE_LOOP('',(#776,#777,#778,#779,#780,#781,#782,#783));
#346=EDGE_LOOP('',(#784,#785,#786,#787));
#347=EDGE_LOOP('',(#788,#789,#790,#791));
#348=EDGE_LOOP('',(#792,#793,#794,#795));
#349=EDGE_LOOP('',(#796,#797,#798,#799,#800,#801,#802,#803,#804,#805,#806,
#807));
#350=EDGE_LOOP('',(#808));
#351=EDGE_LOOP('',(#809));
#352=EDGE_LOOP('',(#810));
#353=CIRCLE('',#916,2.34999999999999);
#354=CIRCLE('',#918,2.34999999999999);
#355=CIRCLE('',#920,2.34999999999999);
#356=CIRCLE('',#922,2.34999999999999);
#357=CIRCLE('',#924,7.00000000000003);
#358=CIRCLE('',#925,5.);
#359=CIRCLE('',#927,6.99999999999999);
#360=CIRCLE('',#928,7.00000000000003);
#361=CIRCLE('',#929,6.99999999999999);
#362=CIRCLE('',#931,5.);
#363=CIRCLE('',#933,5.);
#364=CIRCLE('',#935,5.);
#365=CIRCLE('',#937,2.34999999999999);
#366=CIRCLE('',#940,2.34999999999999);
#367=CIRCLE('',#943,2.34999999999999);
#368=CIRCLE('',#946,2.34999999999999);
#369=CIRCLE('',#949,3.4);
#370=CIRCLE('',#950,3.4);
#371=CIRCLE('',#951,3.4);
#372=CIRCLE('',#959,3.4);
#373=CIRCLE('',#960,3.4);
#374=CIRCLE('',#963,3.4);
#375=CIRCLE('',#964,3.4);
#376=CIRCLE('',#966,3.4);
#377=CIRCLE('',#970,3.4);
#378=CIRCLE('',#973,3.4);
#379=CIRCLE('',#976,3.4);
#380=CIRCLE('',#979,3.4);
#381=VERTEX_POINT('',#1249);
#382=VERTEX_POINT('',#1252);
#383=VERTEX_POINT('',#1255);
#384=VERTEX_POINT('',#1258);
#385=VERTEX_POINT('',#1261);
#386=VERTEX_POINT('',#1263);
#387=VERTEX_POINT('',#1267);
#388=VERTEX_POINT('',#1268);
#389=VERTEX_POINT('',#1270);
#390=VERTEX_POINT('',#1272);
#391=VERTEX_POINT('',#1274);
#392=VERTEX_POINT('',#1276);
#393=VERTEX_POINT('',#1278);
#394=VERTEX_POINT('',#1280);
#395=VERTEX_POINT('',#1282);
#396=VERTEX_POINT('',#1284);
#397=VERTEX_POINT('',#1286);
#398=VERTEX_POINT('',#1288);
#399=VERTEX_POINT('',#1291);
#400=VERTEX_POINT('',#1293);
#401=VERTEX_POINT('',#1295);
#402=VERTEX_POINT('',#1298);
#403=VERTEX_POINT('',#1302);
#404=VERTEX_POINT('',#1306);
#405=VERTEX_POINT('',#1310);
#406=VERTEX_POINT('',#1315);
#407=VERTEX_POINT('',#1320);
#408=VERTEX_POINT('',#1325);
#409=VERTEX_POINT('',#1330);
#410=VERTEX_POINT('',#1331);
#411=VERTEX_POINT('',#1333);
#412=VERTEX_POINT('',#1335);
#413=VERTEX_POINT('',#1337);
#414=VERTEX_POINT('',#1339);
#415=VERTEX_POINT('',#1342);
#416=VERTEX_POINT('',#1344);
#417=VERTEX_POINT('',#1346);
#418=VERTEX_POINT('',#1348);
#419=VERTEX_POINT('',#1351);
#420=VERTEX_POINT('',#1353);
#421=VERTEX_POINT('',#1355);
#422=VERTEX_POINT('',#1358);
#423=VERTEX_POINT('',#1362);
#424=VERTEX_POINT('',#1366);
#425=VERTEX_POINT('',#1368);
#426=VERTEX_POINT('',#1370);
#427=VERTEX_POINT('',#1372);
#428=VERTEX_POINT('',#1374);
#429=VERTEX_POINT('',#1378);
#430=VERTEX_POINT('',#1382);
#431=VERTEX_POINT('',#1386);
#432=VERTEX_POINT('',#1387);
#433=VERTEX_POINT('',#1389);
#434=VERTEX_POINT('',#1391);
#435=VERTEX_POINT('',#1395);
#436=VERTEX_POINT('',#1397);
#437=VERTEX_POINT('',#1400);
#438=VERTEX_POINT('',#1402);
#439=VERTEX_POINT('',#1405);
#440=VERTEX_POINT('',#1407);
#441=VERTEX_POINT('',#1413);
#442=VERTEX_POINT('',#1415);
#443=VERTEX_POINT('',#1418);
#444=VERTEX_POINT('',#1419);
#445=VERTEX_POINT('',#1423);
#446=VERTEX_POINT('',#1426);
#447=VERTEX_POINT('',#1430);
#448=VERTEX_POINT('',#1435);
#449=VERTEX_POINT('',#1440);
#450=VERTEX_POINT('',#1446);
#451=VERTEX_POINT('',#1452);
#452=VERTEX_POINT('',#1456);
#453=VERTEX_POINT('',#1460);
#454=VERTEX_POINT('',#1478);
#455=VERTEX_POINT('',#1482);
#456=VERTEX_POINT('',#1486);
#457=EDGE_CURVE('',#381,#381,#353,.T.);
#458=EDGE_CURVE('',#382,#382,#354,.T.);
#459=EDGE_CURVE('',#383,#383,#355,.T.);
#460=EDGE_CURVE('',#384,#384,#356,.T.);
#461=EDGE_CURVE('',#385,#385,#357,.T.);
#462=EDGE_CURVE('',#385,#386,#45,.T.);
#463=EDGE_CURVE('',#386,#386,#358,.T.);
#464=EDGE_CURVE('',#387,#388,#46,.T.);
#465=EDGE_CURVE('',#389,#388,#47,.T.);
#466=EDGE_CURVE('',#389,#390,#48,.T.);
#467=EDGE_CURVE('',#390,#391,#49,.T.);
#468=EDGE_CURVE('',#391,#392,#50,.T.);
#469=EDGE_CURVE('',#392,#393,#51,.T.);
#470=EDGE_CURVE('',#393,#394,#52,.T.);
#471=EDGE_CURVE('',#395,#394,#53,.T.);
#472=EDGE_CURVE('',#395,#396,#54,.T.);
#473=EDGE_CURVE('',#396,#397,#55,.T.);
#474=EDGE_CURVE('',#397,#398,#56,.T.);
#475=EDGE_CURVE('',#398,#387,#57,.T.);
#476=EDGE_CURVE('',#399,#399,#359,.T.);
#477=EDGE_CURVE('',#400,#400,#360,.T.);
#478=EDGE_CURVE('',#401,#401,#361,.T.);
#479=EDGE_CURVE('',#399,#402,#58,.T.);
#480=EDGE_CURVE('',#402,#402,#362,.T.);
#481=EDGE_CURVE('',#401,#403,#59,.T.);
#482=EDGE_CURVE('',#403,#403,#363,.T.);
#483=EDGE_CURVE('',#400,#404,#60,.T.);
#484=EDGE_CURVE('',#404,#404,#364,.T.);
#485=EDGE_CURVE('',#405,#405,#365,.T.);
#486=EDGE_CURVE('',#405,#382,#61,.T.);
#487=EDGE_CURVE('',#406,#406,#366,.T.);
#488=EDGE_CURVE('',#406,#381,#62,.T.);
#489=EDGE_CURVE('',#407,#407,#367,.T.);
#490=EDGE_CURVE('',#407,#383,#63,.T.);
#491=EDGE_CURVE('',#408,#408,#368,.T.);
#492=EDGE_CURVE('',#408,#384,#64,.T.);
#493=EDGE_CURVE('',#409,#410,#65,.T.);
#494=EDGE_CURVE('',#410,#411,#66,.T.);
#495=EDGE_CURVE('',#411,#412,#67,.T.);
#496=EDGE_CURVE('',#412,#413,#68,.T.);
#497=EDGE_CURVE('',#413,#414,#69,.T.);
#498=EDGE_CURVE('',#414,#389,#70,.T.);
#499=EDGE_CURVE('',#388,#415,#71,.T.);
#500=EDGE_CURVE('',#415,#416,#72,.T.);
#501=EDGE_CURVE('',#416,#417,#73,.T.);
#502=EDGE_CURVE('',#417,#418,#74,.T.);
#503=EDGE_CURVE('',#418,#409,#75,.T.);
#504=EDGE_CURVE('',#419,#419,#369,.T.);
#505=EDGE_CURVE('',#420,#420,#370,.T.);
#506=EDGE_CURVE('',#421,#421,#371,.T.);
#507=EDGE_CURVE('',#387,#422,#76,.T.);
#508=EDGE_CURVE('',#415,#422,#77,.T.);
#509=EDGE_CURVE('',#422,#423,#78,.T.);
#510=EDGE_CURVE('',#416,#423,#79,.T.);
#511=EDGE_CURVE('',#423,#424,#80,.T.);
#512=EDGE_CURVE('',#425,#424,#81,.T.);
#513=EDGE_CURVE('',#425,#426,#82,.T.);
#514=EDGE_CURVE('',#426,#427,#83,.T.);
#515=EDGE_CURVE('',#428,#427,#84,.T.);
#516=EDGE_CURVE('',#417,#428,#85,.T.);
#517=EDGE_CURVE('',#429,#428,#86,.T.);
#518=EDGE_CURVE('',#429,#418,#87,.T.);
#519=EDGE_CURVE('',#430,#429,#88,.T.);
#520=EDGE_CURVE('',#409,#430,#89,.T.);
#521=EDGE_CURVE('',#431,#432,#90,.T.);
#522=EDGE_CURVE('',#433,#432,#91,.T.);
#523=EDGE_CURVE('',#433,#434,#92,.T.);
#524=EDGE_CURVE('',#431,#434,#93,.T.);
#525=EDGE_CURVE('',#435,#431,#94,.T.);
#526=EDGE_CURVE('',#436,#434,#95,.T.);
#527=EDGE_CURVE('',#435,#436,#96,.T.);
#528=EDGE_CURVE('',#437,#437,#372,.T.);
#529=EDGE_CURVE('',#438,#438,#373,.T.);
#530=EDGE_CURVE('',#439,#413,#97,.T.);
#531=EDGE_CURVE('',#440,#439,#98,.T.);
#532=EDGE_CURVE('',#440,#414,#99,.T.);
#533=EDGE_CURVE('',#432,#440,#100,.T.);
#534=EDGE_CURVE('',#433,#439,#101,.T.);
#535=EDGE_CURVE('',#441,#441,#374,.T.);
#536=EDGE_CURVE('',#442,#442,#375,.T.);
#537=EDGE_CURVE('',#443,#444,#102,.T.);
#538=EDGE_CURVE('',#444,#426,#103,.T.);
#539=EDGE_CURVE('',#425,#443,#104,.T.);
#540=EDGE_CURVE('',#445,#445,#376,.T.);
#541=EDGE_CURVE('',#427,#446,#105,.T.);
#542=EDGE_CURVE('',#444,#446,#106,.T.);
#543=EDGE_CURVE('',#447,#443,#107,.T.);
#544=EDGE_CURVE('',#447,#424,#108,.T.);
#545=EDGE_CURVE('',#422,#447,#109,.T.);
#546=EDGE_CURVE('',#448,#448,#377,.T.);
#547=EDGE_CURVE('',#448,#421,#110,.T.);
#548=EDGE_CURVE('',#449,#449,#378,.T.);
#549=EDGE_CURVE('',#449,#445,#111,.T.);
#550=EDGE_CURVE('',#442,#420,#112,.T.);
#551=EDGE_CURVE('',#450,#450,#379,.T.);
#552=EDGE_CURVE('',#450,#438,#113,.T.);
#553=EDGE_CURVE('',#441,#419,#114,.T.);
#554=EDGE_CURVE('',#451,#451,#380,.T.);
#555=EDGE_CURVE('',#451,#437,#115,.T.);
#556=EDGE_CURVE('',#452,#430,#116,.T.);
#557=EDGE_CURVE('',#452,#410,#117,.T.);
#558=EDGE_CURVE('',#453,#452,#118,.T.);
#559=EDGE_CURVE('',#411,#453,#119,.T.);
#560=EDGE_CURVE('',#398,#447,#120,.T.);
#561=EDGE_CURVE('',#397,#443,#121,.T.);
#562=EDGE_CURVE('',#396,#444,#122,.T.);
#563=EDGE_CURVE('',#440,#390,#123,.T.);
#564=EDGE_CURVE('',#392,#431,#124,.T.);
#565=EDGE_CURVE('',#393,#435,#125,.T.);
#566=EDGE_CURVE('',#391,#432,#126,.T.);
#567=EDGE_CURVE('',#454,#453,#127,.T.);
#568=EDGE_CURVE('',#454,#412,#128,.F.);
#569=EDGE_CURVE('',#455,#454,#129,.T.);
#570=EDGE_CURVE('',#455,#436,#130,.T.);
#571=EDGE_CURVE('',#456,#455,#131,.T.);
#572=EDGE_CURVE('',#456,#435,#132,.T.);
#573=EDGE_CURVE('',#394,#456,#133,.T.);
#574=EDGE_CURVE('',#446,#395,#134,.T.);
#575=ORIENTED_EDGE('',*,*,#457,.F.);
#576=ORIENTED_EDGE('',*,*,#458,.F.);
#577=ORIENTED_EDGE('',*,*,#459,.F.);
#578=ORIENTED_EDGE('',*,*,#460,.F.);
#579=ORIENTED_EDGE('',*,*,#461,.T.);
#580=ORIENTED_EDGE('',*,*,#462,.T.);
#581=ORIENTED_EDGE('',*,*,#463,.F.);
#582=ORIENTED_EDGE('',*,*,#462,.F.);
#583=ORIENTED_EDGE('',*,*,#464,.T.);
#584=ORIENTED_EDGE('',*,*,#465,.F.);
#585=ORIENTED_EDGE('',*,*,#466,.T.);
#586=ORIENTED_EDGE('',*,*,#467,.T.);
#587=ORIENTED_EDGE('',*,*,#468,.T.);
#588=ORIENTED_EDGE('',*,*,#469,.T.);
#589=ORIENTED_EDGE('',*,*,#470,.T.);
#590=ORIENTED_EDGE('',*,*,#471,.F.);
#591=ORIENTED_EDGE('',*,*,#472,.T.);
#592=ORIENTED_EDGE('',*,*,#473,.T.);
#593=ORIENTED_EDGE('',*,*,#474,.T.);
#594=ORIENTED_EDGE('',*,*,#475,.T.);
#595=ORIENTED_EDGE('',*,*,#476,.F.);
#596=ORIENTED_EDGE('',*,*,#477,.F.);
#597=ORIENTED_EDGE('',*,*,#478,.F.);
#598=ORIENTED_EDGE('',*,*,#461,.F.);
#599=ORIENTED_EDGE('',*,*,#476,.T.);
#600=ORIENTED_EDGE('',*,*,#479,.T.);
#601=ORIENTED_EDGE('',*,*,#480,.F.);
#602=ORIENTED_EDGE('',*,*,#479,.F.);
#603=ORIENTED_EDGE('',*,*,#478,.T.);
#604=ORIENTED_EDGE('',*,*,#481,.T.);
#605=ORIENTED_EDGE('',*,*,#482,.F.);
#606=ORIENTED_EDGE('',*,*,#481,.F.);
#607=ORIENTED_EDGE('',*,*,#477,.T.);
#608=ORIENTED_EDGE('',*,*,#483,.T.);
#609=ORIENTED_EDGE('',*,*,#484,.F.);
#610=ORIENTED_EDGE('',*,*,#483,.F.);
#611=ORIENTED_EDGE('',*,*,#485,.F.);
#612=ORIENTED_EDGE('',*,*,#486,.T.);
#613=ORIENTED_EDGE('',*,*,#458,.T.);
#614=ORIENTED_EDGE('',*,*,#486,.F.);
#615=ORIENTED_EDGE('',*,*,#463,.T.);
#616=ORIENTED_EDGE('',*,*,#485,.T.);
#617=ORIENTED_EDGE('',*,*,#487,.F.);
#618=ORIENTED_EDGE('',*,*,#488,.T.);
#619=ORIENTED_EDGE('',*,*,#457,.T.);
#620=ORIENTED_EDGE('',*,*,#488,.F.);
#621=ORIENTED_EDGE('',*,*,#482,.T.);
#622=ORIENTED_EDGE('',*,*,#487,.T.);
#623=ORIENTED_EDGE('',*,*,#489,.F.);
#624=ORIENTED_EDGE('',*,*,#490,.T.);
#625=ORIENTED_EDGE('',*,*,#459,.T.);
#626=ORIENTED_EDGE('',*,*,#490,.F.);
#627=ORIENTED_EDGE('',*,*,#484,.T.);
#628=ORIENTED_EDGE('',*,*,#489,.T.);
#629=ORIENTED_EDGE('',*,*,#491,.F.);
#630=ORIENTED_EDGE('',*,*,#492,.T.);
#631=ORIENTED_EDGE('',*,*,#460,.T.);
#632=ORIENTED_EDGE('',*,*,#492,.F.);
#633=ORIENTED_EDGE('',*,*,#480,.T.);
#634=ORIENTED_EDGE('',*,*,#491,.T.);
#635=ORIENTED_EDGE('',*,*,#493,.T.);
#636=ORIENTED_EDGE('',*,*,#494,.T.);
#637=ORIENTED_EDGE('',*,*,#495,.T.);
#638=ORIENTED_EDGE('',*,*,#496,.T.);
#639=ORIENTED_EDGE('',*,*,#497,.T.);
#640=ORIENTED_EDGE('',*,*,#498,.T.);
#641=ORIENTED_EDGE('',*,*,#465,.T.);
#642=ORIENTED_EDGE('',*,*,#499,.T.);
#643=ORIENTED_EDGE('',*,*,#500,.T.);
#644=ORIENTED_EDGE('',*,*,#501,.T.);
#645=ORIENTED_EDGE('',*,*,#502,.T.);
#646=ORIENTED_EDGE('',*,*,#503,.T.);
#647=ORIENTED_EDGE('',*,*,#504,.T.);
#648=ORIENTED_EDGE('',*,*,#505,.T.);
#649=ORIENTED_EDGE('',*,*,#506,.T.);
#650=ORIENTED_EDGE('',*,*,#499,.F.);
#651=ORIENTED_EDGE('',*,*,#464,.F.);
#652=ORIENTED_EDGE('',*,*,#507,.T.);
#653=ORIENTED_EDGE('',*,*,#508,.F.);
#654=ORIENTED_EDGE('',*,*,#500,.F.);
#655=ORIENTED_EDGE('',*,*,#508,.T.);
#656=ORIENTED_EDGE('',*,*,#509,.T.);
#657=ORIENTED_EDGE('',*,*,#510,.F.);
#658=ORIENTED_EDGE('',*,*,#501,.F.);
#659=ORIENTED_EDGE('',*,*,#510,.T.);
#660=ORIENTED_EDGE('',*,*,#511,.T.);
#661=ORIENTED_EDGE('',*,*,#512,.F.);
#662=ORIENTED_EDGE('',*,*,#513,.T.);
#663=ORIENTED_EDGE('',*,*,#514,.T.);
#664=ORIENTED_EDGE('',*,*,#515,.F.);
#665=ORIENTED_EDGE('',*,*,#516,.F.);
#666=ORIENTED_EDGE('',*,*,#502,.F.);
#667=ORIENTED_EDGE('',*,*,#516,.T.);
#668=ORIENTED_EDGE('',*,*,#517,.F.);
#669=ORIENTED_EDGE('',*,*,#518,.T.);
#670=ORIENTED_EDGE('',*,*,#503,.F.);
#671=ORIENTED_EDGE('',*,*,#518,.F.);
#672=ORIENTED_EDGE('',*,*,#519,.F.);
#673=ORIENTED_EDGE('',*,*,#520,.F.);
#674=ORIENTED_EDGE('',*,*,#521,.T.);
#675=ORIENTED_EDGE('',*,*,#522,.F.);
#676=ORIENTED_EDGE('',*,*,#523,.T.);
#677=ORIENTED_EDGE('',*,*,#524,.F.);
#678=ORIENTED_EDGE('',*,*,#525,.T.);
#679=ORIENTED_EDGE('',*,*,#524,.T.);
#680=ORIENTED_EDGE('',*,*,#526,.F.);
#681=ORIENTED_EDGE('',*,*,#527,.F.);
#682=ORIENTED_EDGE('',*,*,#528,.F.);
#683=ORIENTED_EDGE('',*,*,#529,.F.);
#684=ORIENTED_EDGE('',*,*,#497,.F.);
#685=ORIENTED_EDGE('',*,*,#530,.F.);
#686=ORIENTED_EDGE('',*,*,#531,.F.);
#687=ORIENTED_EDGE('',*,*,#532,.T.);
#688=ORIENTED_EDGE('',*,*,#533,.T.);
#689=ORIENTED_EDGE('',*,*,#531,.T.);
#690=ORIENTED_EDGE('',*,*,#534,.F.);
#691=ORIENTED_EDGE('',*,*,#522,.T.);
#692=ORIENTED_EDGE('',*,*,#535,.F.);
#693=ORIENTED_EDGE('',*,*,#536,.F.);
#694=ORIENTED_EDGE('',*,*,#537,.T.);
#695=ORIENTED_EDGE('',*,*,#538,.T.);
#696=ORIENTED_EDGE('',*,*,#513,.F.);
#697=ORIENTED_EDGE('',*,*,#539,.T.);
#698=ORIENTED_EDGE('',*,*,#540,.F.);
#699=ORIENTED_EDGE('',*,*,#541,.F.);
#700=ORIENTED_EDGE('',*,*,#514,.F.);
#701=ORIENTED_EDGE('',*,*,#538,.F.);
#702=ORIENTED_EDGE('',*,*,#542,.T.);
#703=ORIENTED_EDGE('',*,*,#543,.T.);
#704=ORIENTED_EDGE('',*,*,#539,.F.);
#705=ORIENTED_EDGE('',*,*,#512,.T.);
#706=ORIENTED_EDGE('',*,*,#544,.F.);
#707=ORIENTED_EDGE('',*,*,#545,.T.);
#708=ORIENTED_EDGE('',*,*,#544,.T.);
#709=ORIENTED_EDGE('',*,*,#511,.F.);
#710=ORIENTED_EDGE('',*,*,#509,.F.);
#711=ORIENTED_EDGE('',*,*,#546,.F.);
#712=ORIENTED_EDGE('',*,*,#546,.T.);
#713=ORIENTED_EDGE('',*,*,#547,.T.);
#714=ORIENTED_EDGE('',*,*,#506,.F.);
#715=ORIENTED_EDGE('',*,*,#547,.F.);
#716=ORIENTED_EDGE('',*,*,#548,.F.);
#717=ORIENTED_EDGE('',*,*,#549,.T.);
#718=ORIENTED_EDGE('',*,*,#540,.T.);
#719=ORIENTED_EDGE('',*,*,#549,.F.);
#720=ORIENTED_EDGE('',*,*,#536,.T.);
#721=ORIENTED_EDGE('',*,*,#550,.T.);
#722=ORIENTED_EDGE('',*,*,#505,.F.);
#723=ORIENTED_EDGE('',*,*,#550,.F.);
#724=ORIENTED_EDGE('',*,*,#551,.F.);
#725=ORIENTED_EDGE('',*,*,#552,.T.);
#726=ORIENTED_EDGE('',*,*,#529,.T.);
#727=ORIENTED_EDGE('',*,*,#552,.F.);
#728=ORIENTED_EDGE('',*,*,#535,.T.);
#729=ORIENTED_EDGE('',*,*,#553,.T.);
#730=ORIENTED_EDGE('',*,*,#504,.F.);
#731=ORIENTED_EDGE('',*,*,#553,.F.);
#732=ORIENTED_EDGE('',*,*,#554,.F.);
#733=ORIENTED_EDGE('',*,*,#555,.T.);
#734=ORIENTED_EDGE('',*,*,#528,.T.);
#735=ORIENTED_EDGE('',*,*,#555,.F.);
#736=ORIENTED_EDGE('',*,*,#493,.F.);
#737=ORIENTED_EDGE('',*,*,#520,.T.);
#738=ORIENTED_EDGE('',*,*,#556,.F.);
#739=ORIENTED_EDGE('',*,*,#557,.T.);
#740=ORIENTED_EDGE('',*,*,#494,.F.);
#741=ORIENTED_EDGE('',*,*,#557,.F.);
#742=ORIENTED_EDGE('',*,*,#558,.F.);
#743=ORIENTED_EDGE('',*,*,#559,.F.);
#744=ORIENTED_EDGE('',*,*,#545,.F.);
#745=ORIENTED_EDGE('',*,*,#507,.F.);
#746=ORIENTED_EDGE('',*,*,#475,.F.);
#747=ORIENTED_EDGE('',*,*,#560,.T.);
#748=ORIENTED_EDGE('',*,*,#543,.F.);
#749=ORIENTED_EDGE('',*,*,#560,.F.);
#750=ORIENTED_EDGE('',*,*,#474,.F.);
#751=ORIENTED_EDGE('',*,*,#561,.T.);
#752=ORIENTED_EDGE('',*,*,#537,.F.);
#753=ORIENTED_EDGE('',*,*,#561,.F.);
#754=ORIENTED_EDGE('',*,*,#473,.F.);
#755=ORIENTED_EDGE('',*,*,#562,.T.);
#756=ORIENTED_EDGE('',*,*,#498,.F.);
#757=ORIENTED_EDGE('',*,*,#532,.F.);
#758=ORIENTED_EDGE('',*,*,#563,.T.);
#759=ORIENTED_EDGE('',*,*,#466,.F.);
#760=ORIENTED_EDGE('',*,*,#469,.F.);
#761=ORIENTED_EDGE('',*,*,#564,.T.);
#762=ORIENTED_EDGE('',*,*,#525,.F.);
#763=ORIENTED_EDGE('',*,*,#565,.F.);
#764=ORIENTED_EDGE('',*,*,#468,.F.);
#765=ORIENTED_EDGE('',*,*,#566,.T.);
#766=ORIENTED_EDGE('',*,*,#521,.F.);
#767=ORIENTED_EDGE('',*,*,#564,.F.);
#768=ORIENTED_EDGE('',*,*,#467,.F.);
#769=ORIENTED_EDGE('',*,*,#563,.F.);
#770=ORIENTED_EDGE('',*,*,#533,.F.);
#771=ORIENTED_EDGE('',*,*,#566,.F.);
#772=ORIENTED_EDGE('',*,*,#495,.F.);
#773=ORIENTED_EDGE('',*,*,#559,.T.);
#774=ORIENTED_EDGE('',*,*,#567,.F.);
#775=ORIENTED_EDGE('',*,*,#568,.T.);
#776=ORIENTED_EDGE('',*,*,#496,.F.);
#777=ORIENTED_EDGE('',*,*,#568,.F.);
#778=ORIENTED_EDGE('',*,*,#569,.F.);
#779=ORIENTED_EDGE('',*,*,#570,.T.);
#780=ORIENTED_EDGE('',*,*,#526,.T.);
#781=ORIENTED_EDGE('',*,*,#523,.F.);
#782=ORIENTED_EDGE('',*,*,#534,.T.);
#783=ORIENTED_EDGE('',*,*,#530,.T.);
#784=ORIENTED_EDGE('',*,*,#571,.F.);
#785=ORIENTED_EDGE('',*,*,#572,.T.);
#786=ORIENTED_EDGE('',*,*,#527,.T.);
#787=ORIENTED_EDGE('',*,*,#570,.F.);
#788=ORIENTED_EDGE('',*,*,#573,.F.);
#789=ORIENTED_EDGE('',*,*,#470,.F.);
#790=ORIENTED_EDGE('',*,*,#565,.T.);
#791=ORIENTED_EDGE('',*,*,#572,.F.);
#792=ORIENTED_EDGE('',*,*,#574,.F.);
#793=ORIENTED_EDGE('',*,*,#542,.F.);
#794=ORIENTED_EDGE('',*,*,#562,.F.);
#795=ORIENTED_EDGE('',*,*,#472,.F.);
#796=ORIENTED_EDGE('',*,*,#558,.T.);
#797=ORIENTED_EDGE('',*,*,#556,.T.);
#798=ORIENTED_EDGE('',*,*,#519,.T.);
#799=ORIENTED_EDGE('',*,*,#517,.T.);
#800=ORIENTED_EDGE('',*,*,#515,.T.);
#801=ORIENTED_EDGE('',*,*,#541,.T.);
#802=ORIENTED_EDGE('',*,*,#574,.T.);
#803=ORIENTED_EDGE('',*,*,#471,.T.);
#804=ORIENTED_EDGE('',*,*,#573,.T.);
#805=ORIENTED_EDGE('',*,*,#571,.T.);
#806=ORIENTED_EDGE('',*,*,#569,.T.);
#807=ORIENTED_EDGE('',*,*,#567,.T.);
#808=ORIENTED_EDGE('',*,*,#548,.T.);
#809=ORIENTED_EDGE('',*,*,#551,.T.);
#810=ORIENTED_EDGE('',*,*,#554,.T.);
#811=PLANE('',#915);
#812=PLANE('',#917);
#813=PLANE('',#919);
#814=PLANE('',#921);
#815=PLANE('',#926);
#816=PLANE('',#938);
#817=PLANE('',#941);
#818=PLANE('',#944);
#819=PLANE('',#947);
#820=PLANE('',#948);
#821=PLANE('',#952);
#822=PLANE('',#953);
#823=PLANE('',#954);
#824=PLANE('',#955);
#825=PLANE('',#956);
#826=PLANE('',#957);
#827=PLANE('',#958);
#828=PLANE('',#961);
#829=PLANE('',#962);
#830=PLANE('',#965);
#831=PLANE('',#967);
#832=PLANE('',#968);
#833=PLANE('',#969);
#834=PLANE('',#980);
#835=PLANE('',#981);
#836=PLANE('',#982);
#837=PLANE('',#983);
#838=PLANE('',#984);
#839=PLANE('',#985);
#840=PLANE('',#986);
#841=PLANE('',#987);
#842=PLANE('',#988);
#843=PLANE('',#989);
#844=PLANE('',#990);
#845=PLANE('',#991);
#846=PLANE('',#992);
#847=PLANE('',#993);
#848=PLANE('',#994);
#849=ADVANCED_FACE('',(#229),#811,.T.);
#850=ADVANCED_FACE('',(#230),#812,.T.);
#851=ADVANCED_FACE('',(#231),#813,.T.);
#852=ADVANCED_FACE('',(#232),#814,.T.);
#853=ADVANCED_FACE('',(#233),#225,.T.);
#854=ADVANCED_FACE('',(#234,#25,#26,#27,#28),#815,.T.);
#855=ADVANCED_FACE('',(#235),#226,.T.);
#856=ADVANCED_FACE('',(#236),#227,.T.);
#857=ADVANCED_FACE('',(#237),#228,.T.);
#858=ADVANCED_FACE('',(#238),#15,.F.);
#859=ADVANCED_FACE('',(#239,#29),#816,.T.);
#860=ADVANCED_FACE('',(#240),#16,.F.);
#861=ADVANCED_FACE('',(#241,#30),#817,.T.);
#862=ADVANCED_FACE('',(#242),#17,.F.);
#863=ADVANCED_FACE('',(#243,#31),#818,.T.);
#864=ADVANCED_FACE('',(#244),#18,.F.);
#865=ADVANCED_FACE('',(#245,#32),#819,.T.);
#866=ADVANCED_FACE('',(#246,#33,#34,#35),#820,.T.);
#867=ADVANCED_FACE('',(#247),#821,.F.);
#868=ADVANCED_FACE('',(#248),#822,.F.);
#869=ADVANCED_FACE('',(#249),#823,.T.);
#870=ADVANCED_FACE('',(#250),#824,.F.);
#871=ADVANCED_FACE('',(#251),#825,.F.);
#872=ADVANCED_FACE('',(#252),#826,.F.);
#873=ADVANCED_FACE('',(#253,#36,#37),#827,.F.);
#874=ADVANCED_FACE('',(#254),#828,.F.);
#875=ADVANCED_FACE('',(#255,#38,#39),#829,.F.);
#876=ADVANCED_FACE('',(#256,#40),#830,.F.);
#877=ADVANCED_FACE('',(#257),#831,.F.);
#878=ADVANCED_FACE('',(#258),#832,.F.);
#879=ADVANCED_FACE('',(#259,#41),#833,.F.);
#880=ADVANCED_FACE('',(#260),#19,.F.);
#881=ADVANCED_FACE('',(#261),#20,.F.);
#882=ADVANCED_FACE('',(#262),#21,.F.);
#883=ADVANCED_FACE('',(#263),#22,.F.);
#884=ADVANCED_FACE('',(#264),#23,.F.);
#885=ADVANCED_FACE('',(#265),#24,.F.);
#886=ADVANCED_FACE('',(#266),#834,.F.);
#887=ADVANCED_FACE('',(#267),#835,.F.);
#888=ADVANCED_FACE('',(#268),#836,.F.);
#889=ADVANCED_FACE('',(#269),#837,.F.);
#890=ADVANCED_FACE('',(#270),#838,.F.);
#891=ADVANCED_FACE('',(#271),#839,.F.);
#892=ADVANCED_FACE('',(#272),#840,.F.);
#893=ADVANCED_FACE('',(#273),#841,.F.);
#894=ADVANCED_FACE('',(#274),#842,.F.);
#895=ADVANCED_FACE('',(#275),#843,.F.);
#896=ADVANCED_FACE('',(#276),#844,.T.);
#897=ADVANCED_FACE('',(#277),#845,.F.);
#898=ADVANCED_FACE('',(#278),#846,.F.);
#899=ADVANCED_FACE('',(#279),#847,.F.);
#900=ADVANCED_FACE('',(#280,#42,#43,#44),#848,.T.);
#901=CLOSED_SHELL('',(#849,#850,#851,#852,#853,#854,#855,#856,#857,#858,
#859,#860,#861,#862,#863,#864,#865,#866,#867,#868,#869,#870,#871,#872,#873,
#874,#875,#876,#877,#878,#879,#880,#881,#882,#883,#884,#885,#886,#887,#888,
#889,#890,#891,#892,#893,#894,#895,#896,#897,#898,#899,#900));
#902=DERIVED_UNIT_ELEMENT(#904,1.);
#903=DERIVED_UNIT_ELEMENT(#1499,-3.);
#904=(
MASS_UNIT()
NAMED_UNIT(*)
SI_UNIT(.KILO.,.GRAM.)
);
#905=DERIVED_UNIT((#902,#903));
#906=MEASURE_REPRESENTATION_ITEM('density measure',
POSITIVE_RATIO_MEASURE(7850.),#905);
#907=PROPERTY_DEFINITION_REPRESENTATION(#912,#909);
#908=PROPERTY_DEFINITION_REPRESENTATION(#913,#910);
#909=REPRESENTATION('material name',(#911),#1496);
#910=REPRESENTATION('density',(#906),#1496);
#911=DESCRIPTIVE_REPRESENTATION_ITEM('Steel','Steel');
#912=PROPERTY_DEFINITION('material property','material name',#1506);
#913=PROPERTY_DEFINITION('material property','density of part',#1506);
#914=AXIS2_PLACEMENT_3D('',#1247,#995,#996);
#915=AXIS2_PLACEMENT_3D('',#1248,#997,#998);
#916=AXIS2_PLACEMENT_3D('',#1250,#999,#1000);
#917=AXIS2_PLACEMENT_3D('',#1251,#1001,#1002);
#918=AXIS2_PLACEMENT_3D('',#1253,#1003,#1004);
#919=AXIS2_PLACEMENT_3D('',#1254,#1005,#1006);
#920=AXIS2_PLACEMENT_3D('',#1256,#1007,#1008);
#921=AXIS2_PLACEMENT_3D('',#1257,#1009,#1010);
#922=AXIS2_PLACEMENT_3D('',#1259,#1011,#1012);
#923=AXIS2_PLACEMENT_3D('',#1260,#1013,#1014);
#924=AXIS2_PLACEMENT_3D('',#1262,#1015,#1016);
#925=AXIS2_PLACEMENT_3D('',#1265,#1018,#1019);
#926=AXIS2_PLACEMENT_3D('',#1266,#1020,#1021);
#927=AXIS2_PLACEMENT_3D('',#1292,#1034,#1035);
#928=AXIS2_PLACEMENT_3D('',#1294,#1036,#1037);
#929=AXIS2_PLACEMENT_3D('',#1296,#1038,#1039);
#930=AXIS2_PLACEMENT_3D('',#1297,#1040,#1041);
#931=AXIS2_PLACEMENT_3D('',#1300,#1043,#1044);
#932=AXIS2_PLACEMENT_3D('',#1301,#1045,#1046);
#933=AXIS2_PLACEMENT_3D('',#1304,#1048,#1049);
#934=AXIS2_PLACEMENT_3D('',#1305,#1050,#1051);
#935=AXIS2_PLACEMENT_3D('',#1308,#1053,#1054);
#936=AXIS2_PLACEMENT_3D('',#1309,#1055,#1056);
#937=AXIS2_PLACEMENT_3D('',#1311,#1057,#1058);
#938=AXIS2_PLACEMENT_3D('',#1313,#1060,#1061);
#939=AXIS2_PLACEMENT_3D('',#1314,#1062,#1063);
#940=AXIS2_PLACEMENT_3D('',#1316,#1064,#1065);
#941=AXIS2_PLACEMENT_3D('',#1318,#1067,#1068);
#942=AXIS2_PLACEMENT_3D('',#1319,#1069,#1070);
#943=AXIS2_PLACEMENT_3D('',#1321,#1071,#1072);
#944=AXIS2_PLACEMENT_3D('',#1323,#1074,#1075);
#945=AXIS2_PLACEMENT_3D('',#1324,#1076,#1077);
#946=AXIS2_PLACEMENT_3D('',#1326,#1078,#1079);
#947=AXIS2_PLACEMENT_3D('',#1328,#1081,#1082);
#948=AXIS2_PLACEMENT_3D('',#1329,#1083,#1084);
#949=AXIS2_PLACEMENT_3D('',#1352,#1096,#1097);
#950=AXIS2_PLACEMENT_3D('',#1354,#1098,#1099);
#951=AXIS2_PLACEMENT_3D('',#1356,#1100,#1101);
#952=AXIS2_PLACEMENT_3D('',#1357,#1102,#1103);
#953=AXIS2_PLACEMENT_3D('',#1361,#1106,#1107);
#954=AXIS2_PLACEMENT_3D('',#1365,#1110,#1111);
#955=AXIS2_PLACEMENT_3D('',#1377,#1118,#1119);
#956=AXIS2_PLACEMENT_3D('',#1381,#1122,#1123);
#957=AXIS2_PLACEMENT_3D('',#1385,#1126,#1127);
#958=AXIS2_PLACEMENT_3D('',#1394,#1132,#1133);
#959=AXIS2_PLACEMENT_3D('',#1401,#1137,#1138);
#960=AXIS2_PLACEMENT_3D('',#1403,#1139,#1140);
#961=AXIS2_PLACEMENT_3D('',#1404,#1141,#1142);
#962=AXIS2_PLACEMENT_3D('',#1410,#1146,#1147);
#963=AXIS2_PLACEMENT_3D('',#1414,#1150,#1151);
#964=AXIS2_PLACEMENT_3D('',#1416,#1152,#1153);
#965=AXIS2_PLACEMENT_3D('',#1417,#1154,#1155);
#966=AXIS2_PLACEMENT_3D('',#1424,#1159,#1160);
#967=AXIS2_PLACEMENT_3D('',#1425,#1161,#1162);
#968=AXIS2_PLACEMENT_3D('',#1429,#1165,#1166);
#969=AXIS2_PLACEMENT_3D('',#1433,#1169,#1170);
#970=AXIS2_PLACEMENT_3D('',#1436,#1172,#1173);
#971=AXIS2_PLACEMENT_3D('',#1437,#1174,#1175);
#972=AXIS2_PLACEMENT_3D('',#1439,#1177,#1178);
#973=AXIS2_PLACEMENT_3D('',#1441,#1179,#1180);
#974=AXIS2_PLACEMENT_3D('',#1443,#1182,#1183);
#975=AXIS2_PLACEMENT_3D('',#1445,#1185,#1186);
#976=AXIS2_PLACEMENT_3D('',#1447,#1187,#1188);
#977=AXIS2_PLACEMENT_3D('',#1449,#1190,#1191);
#978=AXIS2_PLACEMENT_3D('',#1451,#1193,#1194);
#979=AXIS2_PLACEMENT_3D('',#1453,#1195,#1196);
#980=AXIS2_PLACEMENT_3D('',#1455,#1198,#1199);
#981=AXIS2_PLACEMENT_3D('',#1459,#1202,#1203);
#982=AXIS2_PLACEMENT_3D('',#1463,#1206,#1207);
#983=AXIS2_PLACEMENT_3D('',#1465,#1209,#1210);
#984=AXIS2_PLACEMENT_3D('',#1467,#1212,#1213);
#985=AXIS2_PLACEMENT_3D('',#1469,#1215,#1216);
#986=AXIS2_PLACEMENT_3D('',#1471,#1218,#1219);
#987=AXIS2_PLACEMENT_3D('',#1474,#1222,#1223);
#988=AXIS2_PLACEMENT_3D('',#1476,#1225,#1226);
#989=AXIS2_PLACEMENT_3D('',#1477,#1227,#1228);
#990=AXIS2_PLACEMENT_3D('',#1481,#1231,#1232);
#991=AXIS2_PLACEMENT_3D('',#1485,#1235,#1236);
#992=AXIS2_PLACEMENT_3D('',#1489,#1239,#1240);
#993=AXIS2_PLACEMENT_3D('',#1491,#1242,#1243);
#994=AXIS2_PLACEMENT_3D('',#1493,#1245,#1246);
#995=DIRECTION('axis',(0.,0.,1.));
#996=DIRECTION('refdir',(1.,0.,0.));
#997=DIRECTION('center_axis',(0.,1.22464679914735E-16,-1.));
#998=DIRECTION('ref_axis',(-1.,0.,0.));
#999=DIRECTION('center_axis',(0.,-1.22464679914735E-16,1.));
#1000=DIRECTION('ref_axis',(-1.,-4.41398464116113E-15,-5.40557216228356E-31));
#1001=DIRECTION('center_axis',(0.,1.22464679914735E-16,-1.));
#1002=DIRECTION('ref_axis',(-1.,0.,0.));
#1003=DIRECTION('center_axis',(0.,-1.22464679914735E-16,1.));
#1004=DIRECTION('ref_axis',(-1.,-4.41398464116113E-15,-5.40557216228356E-31));
#1005=DIRECTION('center_axis',(0.,1.22464679914735E-16,-1.));
#1006=DIRECTION('ref_axis',(-1.,0.,0.));
#1007=DIRECTION('center_axis',(0.,-1.22464679914735E-16,1.));
#1008=DIRECTION('ref_axis',(-1.,-4.41398464116113E-15,-5.40557216228356E-31));
#1009=DIRECTION('center_axis',(0.,1.22464679914735E-16,-1.));
#1010=DIRECTION('ref_axis',(-1.,0.,0.));
#1011=DIRECTION('center_axis',(0.,-1.22464679914735E-16,1.));
#1012=DIRECTION('ref_axis',(-1.,-4.41398464116113E-15,-5.40557216228356E-31));
#1013=DIRECTION('center_axis',(0.,-1.22464679914735E-16,1.));
#1014=DIRECTION('ref_axis',(-1.,-4.41398464116113E-15,-5.40557216228356E-31));
#1015=DIRECTION('center_axis',(0.,1.22464679914735E-16,-1.));
#1016=DIRECTION('ref_axis',(-1.,-4.41398464116113E-15,-5.40557216228356E-31));
#1017=DIRECTION('',(-0.554700196225235,-2.41447255559757E-15,-0.83205029433784));
#1018=DIRECTION('center_axis',(0.,1.22464679914735E-16,-1.));
#1019=DIRECTION('ref_axis',(-1.,-4.41398464116113E-15,-5.40557216228356E-31));
#1020=DIRECTION('center_axis',(0.,1.22464679914735E-16,-1.));
#1021=DIRECTION('ref_axis',(-1.,0.,0.));
#1022=DIRECTION('',(1.,2.08721928629529E-14,2.55610641808016E-30));
#1023=DIRECTION('',(-2.20699232058057E-15,1.,1.22464679914735E-16));
#1024=DIRECTION('',(-1.,1.59872115546023E-14,1.95786874576352E-30));
#1025=DIRECTION('',(-5.46571335200059E-15,-1.,-1.22464679914735E-16));
#1026=DIRECTION('',(-1.,0.,0.));
#1027=DIRECTION('',(-5.46571335200061E-15,1.,1.22464679914735E-16));
#1028=DIRECTION('',(-1.,-1.86517468137026E-14,-2.28418020339078E-30));
#1029=DIRECTION('',(2.02401339838287E-15,-1.,-1.22464679914735E-16));
#1030=DIRECTION('',(1.,-1.82076576038526E-14,-2.22979496045291E-30));
#1031=DIRECTION('',(2.18628534080024E-14,1.,1.22464679914735E-16));
#1032=DIRECTION('',(1.,0.,0.));
#1033=DIRECTION('',(0.,-1.,-1.22464679914735E-16));
#1034=DIRECTION('center_axis',(0.,1.22464679914735E-16,-1.));
#1035=DIRECTION('ref_axis',(-1.,-4.41398464116113E-15,-5.40557216228356E-31));
#1036=DIRECTION('center_axis',(0.,1.22464679914735E-16,-1.));
#1037=DIRECTION('ref_axis',(-1.,-4.41398464116113E-15,-5.40557216228356E-31));
#1038=DIRECTION('center_axis',(0.,1.22464679914735E-16,-1.));
#1039=DIRECTION('ref_axis',(-1.,-4.41398464116113E-15,-5.40557216228356E-31));
#1040=DIRECTION('center_axis',(0.,-1.22464679914735E-16,1.));
#1041=DIRECTION('ref_axis',(-1.,-4.41398464116113E-15,-5.40557216228356E-31));
#1042=DIRECTION('',(-0.554700196225228,-2.41447255559754E-15,-0.832050294337844));
#1043=DIRECTION('center_axis',(0.,1.22464679914735E-16,-1.));
#1044=DIRECTION('ref_axis',(-1.,-4.41398464116113E-15,-5.40557216228356E-31));
#1045=DIRECTION('center_axis',(0.,-1.22464679914735E-16,1.));
#1046=DIRECTION('ref_axis',(-1.,-4.41398464116113E-15,-5.40557216228356E-31));
#1047=DIRECTION('',(-0.554700196225228,-2.41447255559754E-15,-0.832050294337844));
#1048=DIRECTION('center_axis',(0.,1.22464679914735E-16,-1.));
#1049=DIRECTION('ref_axis',(-1.,-4.41398464116113E-15,-5.40557216228356E-31));
#1050=DIRECTION('center_axis',(0.,-1.22464679914735E-16,1.));
#1051=DIRECTION('ref_axis',(-1.,-4.41398464116113E-15,-5.40557216228356E-31));
#1052=DIRECTION('',(-0.554700196225235,-2.41447255559757E-15,-0.83205029433784));
#1053=DIRECTION('center_axis',(0.,1.22464679914735E-16,-1.));
#1054=DIRECTION('ref_axis',(-1.,-4.41398464116113E-15,-5.40557216228356E-31));
#1055=DIRECTION('center_axis',(0.,1.22464679914735E-16,-1.));
#1056=DIRECTION('ref_axis',(-1.,-4.41398464116113E-15,-5.40557216228356E-31));
#1057=DIRECTION('center_axis',(0.,-1.22464679914735E-16,1.));
#1058=DIRECTION('ref_axis',(-1.,-4.41398464116113E-15,-5.40557216228356E-31));
#1059=DIRECTION('',(0.,-1.22464679914735E-16,1.));
#1060=DIRECTION('center_axis',(0.,1.22464679914735E-16,-1.));
#1061=DIRECTION('ref_axis',(-1.,-4.41398464116113E-15,-5.40557216228356E-31));
#1062=DIRECTION('center_axis',(0.,1.22464679914735E-16,-1.));
#1063=DIRECTION('ref_axis',(-1.,-4.41398464116113E-15,-5.40557216228356E-31));
#1064=DIRECTION('center_axis',(0.,-1.22464679914735E-16,1.));
#1065=DIRECTION('ref_axis',(-1.,-4.41398464116113E-15,-5.40557216228356E-31));
#1066=DIRECTION('',(0.,-1.22464679914735E-16,1.));
#1067=DIRECTION('center_axis',(0.,1.22464679914735E-16,-1.));
#1068=DIRECTION('ref_axis',(-1.,-4.41398464116113E-15,-5.40557216228356E-31));
#1069=DIRECTION('center_axis',(0.,1.22464679914735E-16,-1.));
#1070=DIRECTION('ref_axis',(-1.,-4.41398464116113E-15,-5.40557216228356E-31));
#1071=DIRECTION('center_axis',(0.,-1.22464679914735E-16,1.));
#1072=DIRECTION('ref_axis',(-1.,-4.41398464116113E-15,-5.40557216228356E-31));
#1073=DIRECTION('',(0.,-1.22464679914735E-16,1.));
#1074=DIRECTION('center_axis',(0.,1.22464679914735E-16,-1.));
#1075=DIRECTION('ref_axis',(-1.,-4.41398464116113E-15,-5.40557216228356E-31));
#1076=DIRECTION('center_axis',(0.,1.22464679914735E-16,-1.));
#1077=DIRECTION('ref_axis',(-1.,-4.41398464116113E-15,-5.40557216228356E-31));
#1078=DIRECTION('center_axis',(0.,-1.22464679914735E-16,1.));
#1079=DIRECTION('ref_axis',(-1.,-4.41398464116113E-15,-5.40557216228356E-31));
#1080=DIRECTION('',(0.,-1.22464679914735E-16,1.));
#1081=DIRECTION('center_axis',(0.,1.22464679914735E-16,-1.));
#1082=DIRECTION('ref_axis',(-1.,-4.41398464116113E-15,-5.40557216228356E-31));
#1083=DIRECTION('center_axis',(1.,2.20699232058057E-15,2.70278608114178E-31));
#1084=DIRECTION('ref_axis',(0.,-1.22464679914735E-16,1.));
#1085=DIRECTION('',(2.20699232058057E-15,-1.,-1.22464679914735E-16));
#1086=DIRECTION('',(1.56057923590917E-15,-0.707106781186554,-0.707106781186541));
#1087=DIRECTION('',(0.,1.22464679914735E-16,-1.));
#1088=DIRECTION('',(-2.20699232058057E-15,1.,1.22464679914735E-16));
#1089=DIRECTION('',(0.,-1.22464679914735E-16,1.));
#1090=DIRECTION('',(-1.56057923590916E-15,0.707106781186548,0.707106781186547));
#1091=DIRECTION('',(-1.56057923590915E-15,0.707106781186547,-0.707106781186548));
#1092=DIRECTION('',(0.,1.22464679914735E-16,-1.));
#1093=DIRECTION('',(-2.20699232058057E-15,1.,1.22464679914735E-16));
#1094=DIRECTION('',(0.,-1.22464679914735E-16,1.));
#1095=DIRECTION('',(1.56057923590915E-15,-0.707106781186548,0.707106781186547));
#1096=DIRECTION('center_axis',(-1.,-2.20699232058057E-15,-2.70278608114178E-31));
#1097=DIRECTION('ref_axis',(0.,1.,1.22464679914735E-16));
#1098=DIRECTION('center_axis',(-1.,-2.20699232058057E-15,-2.70278608114178E-31));
#1099=DIRECTION('ref_axis',(0.,1.,1.22464679914735E-16));
#1100=DIRECTION('center_axis',(-1.,-2.20699232058057E-15,-2.70278608114178E-31));
#1101=DIRECTION('ref_axis',(0.,1.,1.22464679914735E-16));
#1102=DIRECTION('center_axis',(-1.47588691116275E-14,0.707106781186548,
0.707106781186547));
#1103=DIRECTION('ref_axis',(-1.,2.55610641808016E-30,-2.0872192862953E-14));
#1104=DIRECTION('',(0.577350269189619,0.577350269189635,-0.577350269189624));
#1105=DIRECTION('',(-1.,-2.08721928629529E-14,-2.55610641808016E-30));
#1106=DIRECTION('center_axis',(-2.08721928629529E-14,1.,1.22464679914735E-16));
#1107=DIRECTION('ref_axis',(1.,2.08721928629529E-14,2.55610641808016E-30));
#1108=DIRECTION('',(0.,1.22464679914735E-16,-1.));
#1109=DIRECTION('',(-1.,-2.08721928629529E-14,-2.55610641808016E-30));
#1110=DIRECTION('center_axis',(0.,1.22464679914735E-16,-1.));
#1111=DIRECTION('ref_axis',(1.,0.,0.));
#1112=DIRECTION('',(0.,1.,1.22464679914735E-16));
#1113=DIRECTION('',(1.,0.,0.));
#1114=DIRECTION('',(-2.18628534080024E-14,-1.,-1.22464679914735E-16));
#1115=DIRECTION('',(-1.,1.82076576038526E-14,2.22979496045291E-30));
#1116=DIRECTION('',(2.02401339838287E-15,-1.,-1.22464679914735E-16));
#1117=DIRECTION('',(-1.,-1.22021870077692E-15,-1.4943369261662E-31));
#1118=DIRECTION('center_axis',(1.22021870077692E-15,-1.,-1.22464679914735E-16));
#1119=DIRECTION('ref_axis',(1.,1.22021870077692E-15,1.4943369261662E-31));
#1120=DIRECTION('',(0.,1.22464679914735E-16,-1.));
#1121=DIRECTION('',(1.,1.22021870077692E-15,1.4943369261662E-31));
#1122=DIRECTION('center_axis',(8.62824917850001E-16,-0.707106781186547,
-0.707106781186548));
#1123=DIRECTION('ref_axis',(1.,-1.4943369261662E-31,1.22021870077692E-15));
#1124=DIRECTION('',(-1.43119359920896E-15,0.707106781186548,-0.707106781186547));
#1125=DIRECTION('',(-1.,-1.22021870077692E-15,-1.4943369261662E-31));
#1126=DIRECTION('center_axis',(0.,-1.,-1.22464679914735E-16));
#1127=DIRECTION('ref_axis',(-1.,0.,0.));
#1128=DIRECTION('',(1.,0.,0.));
#1129=DIRECTION('',(0.,-1.22464679914735E-16,1.));
#1130=DIRECTION('',(-1.,0.,0.));
#1131=DIRECTION('',(0.,1.22464679914735E-16,-1.));
#1132=DIRECTION('center_axis',(-1.,-5.46571335200061E-15,-6.6935683615845E-31));
#1133=DIRECTION('ref_axis',(-5.46571335200061E-15,1.,1.22464679914735E-16));
#1134=DIRECTION('',(5.46571335200061E-15,-1.,-1.22464679914735E-16));
#1135=DIRECTION('',(5.46571335200061E-15,-1.,-1.22464679914735E-16));
#1136=DIRECTION('',(0.,1.22464679914735E-16,-1.));
#1137=DIRECTION('center_axis',(1.,5.46571335200061E-15,6.6935683615845E-31));
#1138=DIRECTION('ref_axis',(0.,1.,1.22464679914735E-16));
#1139=DIRECTION('center_axis',(1.,5.46571335200061E-15,6.6935683615845E-31));
#1140=DIRECTION('ref_axis',(0.,1.,1.22464679914735E-16));
#1141=DIRECTION('center_axis',(-1.59872115546023E-14,-1.,-1.22464679914735E-16));
#1142=DIRECTION('ref_axis',(-1.,1.59872115546023E-14,1.95786874576352E-30));
#1143=DIRECTION('',(1.,-1.59872115546023E-14,-1.95786874576352E-30));
#1144=DIRECTION('',(0.,1.22464679914735E-16,-1.));
#1145=DIRECTION('',(1.,-1.59872115546023E-14,-1.95786874576352E-30));
#1146=DIRECTION('center_axis',(1.,-5.46571335200059E-15,-6.69356836158447E-31));
#1147=DIRECTION('ref_axis',(-5.46571335200059E-15,-1.,-1.22464679914735E-16));
#1148=DIRECTION('',(5.46571335200059E-15,1.,1.22464679914735E-16));
#1149=DIRECTION('',(5.46571335200059E-15,1.,1.22464679914735E-16));
#1150=DIRECTION('center_axis',(-1.,5.46571335200059E-15,6.69356836158447E-31));
#1151=DIRECTION('ref_axis',(0.,1.,1.22464679914735E-16));
#1152=DIRECTION('center_axis',(-1.,5.46571335200059E-15,6.69356836158447E-31));
#1153=DIRECTION('ref_axis',(0.,1.,1.22464679914735E-16));
#1154=DIRECTION('center_axis',(-1.,2.18628534080024E-14,2.6774273446338E-30));
#1155=DIRECTION('ref_axis',(2.18628534080024E-14,1.,1.22464679914735E-16));
#1156=DIRECTION('',(-2.18628534080024E-14,-1.,-1.22464679914735E-16));
#1157=DIRECTION('',(0.,1.22464679914735E-16,-1.));
#1158=DIRECTION('',(0.,-1.22464679914735E-16,1.));
#1159=DIRECTION('center_axis',(1.,-2.18628534080024E-14,-2.6774273446338E-30));
#1160=DIRECTION('ref_axis',(0.,1.,1.22464679914735E-16));
#1161=DIRECTION('center_axis',(1.82076576038526E-14,1.,1.22464679914735E-16));
#1162=DIRECTION('ref_axis',(1.,-1.82076576038526E-14,-2.22979496045291E-30));
#1163=DIRECTION('',(0.,-1.22464679914735E-16,1.));
#1164=DIRECTION('',(-1.,1.82076576038526E-14,2.22979496045291E-30));
#1165=DIRECTION('center_axis',(0.,1.,1.22464679914735E-16));
#1166=DIRECTION('ref_axis',(1.,0.,0.));
#1167=DIRECTION('',(-1.,0.,0.));
#1168=DIRECTION('',(0.,1.22464679914735E-16,-1.));
#1169=DIRECTION('center_axis',(1.,0.,0.));
#1170=DIRECTION('ref_axis',(0.,-1.,-1.22464679914735E-16));
#1171=DIRECTION('',(0.,1.,1.22464679914735E-16));
#1172=DIRECTION('center_axis',(-1.,0.,0.));
#1173=DIRECTION('ref_axis',(0.,1.,1.22464679914735E-16));
#1174=DIRECTION('center_axis',(-1.,0.,0.));
#1175=DIRECTION('ref_axis',(0.,1.,1.22464679914735E-16));
#1176=DIRECTION('',(1.,0.,0.));
#1177=DIRECTION('center_axis',(-1.,0.,0.));
#1178=DIRECTION('ref_axis',(0.,1.,1.22464679914735E-16));
#1179=DIRECTION('center_axis',(1.,2.02401339838287E-15,2.47870152976094E-31));
#1180=DIRECTION('ref_axis',(0.,1.,1.22464679914735E-16));
#1181=DIRECTION('',(1.,0.,0.));
#1182=DIRECTION('center_axis',(-1.,0.,0.));
#1183=DIRECTION('ref_axis',(0.,1.,1.22464679914735E-16));
#1184=DIRECTION('',(1.,0.,0.));
#1185=DIRECTION('center_axis',(-1.,0.,0.));
#1186=DIRECTION('ref_axis',(0.,1.,1.22464679914735E-16));
#1187=DIRECTION('center_axis',(1.,2.02401339838287E-15,2.47870152976094E-31));
#1188=DIRECTION('ref_axis',(0.,1.,1.22464679914735E-16));
#1189=DIRECTION('',(1.,0.,0.));
#1190=DIRECTION('center_axis',(-1.,0.,0.));
#1191=DIRECTION('ref_axis',(0.,1.,1.22464679914735E-16));
#1192=DIRECTION('',(1.,0.,0.));
#1193=DIRECTION('center_axis',(-1.,0.,0.));
#1194=DIRECTION('ref_axis',(0.,1.,1.22464679914735E-16));
#1195=DIRECTION('center_axis',(1.,2.02401339838287E-15,2.47870152976094E-31));
#1196=DIRECTION('ref_axis',(0.,1.,1.22464679914735E-16));
#1197=DIRECTION('',(1.,0.,0.));
#1198=DIRECTION('center_axis',(0.,1.22464679914735E-16,-1.));
#1199=DIRECTION('ref_axis',(-1.,0.,0.));
#1200=DIRECTION('',(-2.02401339838287E-15,1.,1.22464679914735E-16));
#1201=DIRECTION('',(1.,-4.43655957983097E-16,-5.43321848866653E-32));
#1202=DIRECTION('center_axis',(3.13712136403659E-16,0.707106781186541,-0.707106781186554));
#1203=DIRECTION('ref_axis',(1.,-5.43321848866643E-32,4.4365595798309E-16));
#1204=DIRECTION('',(-1.43119359920897E-15,0.707106781186554,0.707106781186541));
#1205=DIRECTION('',(-1.,4.43655957983097E-16,5.43321848866653E-32));
#1206=DIRECTION('center_axis',(0.707106781186551,-8.65956056235489E-17,
0.707106781186544));
#1207=DIRECTION('ref_axis',(-0.707106781186544,-8.65956056235497E-17,0.707106781186551));
#1208=DIRECTION('',(0.577350269189622,0.577350269189629,-0.577350269189627));
#1209=DIRECTION('center_axis',(0.,0.707106781186547,0.707106781186548));
#1210=DIRECTION('ref_axis',(-1.,0.,0.));
#1211=DIRECTION('',(-0.577350269189617,0.577350269189631,-0.577350269189629));
#1212=DIRECTION('center_axis',(-0.707106781186546,1.53727762952624E-14,
0.707106781186549));
#1213=DIRECTION('ref_axis',(-0.707106781186549,8.65956056235492E-17,-0.707106781186546));
#1214=DIRECTION('',(-0.577350269189614,0.577350269189638,-0.577350269189625));
#1215=DIRECTION('center_axis',(-1.13046657025232E-14,-0.707106781186547,
0.707106781186548));
#1216=DIRECTION('ref_axis',(-1.,1.95786874576352E-30,-1.59872115546022E-14));
#1217=DIRECTION('',(-0.577350269189601,0.577350269189642,0.577350269189634));
#1218=DIRECTION('center_axis',(-0.707106781186546,-3.95143858084503E-15,
0.707106781186549));
#1219=DIRECTION('ref_axis',(-0.707106781186549,8.65956056235492E-17,-0.707106781186546));
#1220=DIRECTION('',(-0.577350269189626,-0.577350269189626,-0.577350269189625));
#1221=DIRECTION('',(-0.577350269189623,-0.577350269189633,-0.577350269189621));
#1222=DIRECTION('center_axis',(0.,-0.707106781186547,0.707106781186548));
#1223=DIRECTION('ref_axis',(-1.,0.,0.));
#1224=DIRECTION('',(0.577350269189604,-0.577350269189638,-0.577350269189636));
#1225=DIRECTION('center_axis',(0.707106781186559,-3.95143858084508E-15,
0.707106781186536));
#1226=DIRECTION('ref_axis',(-0.707106781186536,-8.65956056235507E-17,0.707106781186559));
#1227=DIRECTION('center_axis',(4.43655957983097E-16,1.,1.22464679914735E-16));
#1228=DIRECTION('ref_axis',(-1.,4.43655957983097E-16,5.43321848866653E-32));
#1229=DIRECTION('',(0.,-1.22464679914735E-16,1.));
#1230=DIRECTION('',(-1.,4.43655957983097E-16,5.43321848866653E-32));
#1231=DIRECTION('center_axis',(0.,1.22464679914735E-16,-1.));
#1232=DIRECTION('ref_axis',(1.,0.,0.));
#1233=DIRECTION('',(2.02401339838287E-15,-1.,-1.22464679914735E-16));
#1234=DIRECTION('',(1.,1.86517468137026E-14,2.28418020339078E-30));
#1235=DIRECTION('center_axis',(1.86517468137026E-14,-1.,-1.22464679914735E-16));
#1236=DIRECTION('ref_axis',(-1.,-1.86517468137026E-14,-2.28418020339078E-30));
#1237=DIRECTION('',(0.,1.22464679914735E-16,-1.));
#1238=DIRECTION('',(1.,1.86517468137026E-14,2.28418020339078E-30));
#1239=DIRECTION('center_axis',(1.31887766529437E-14,-0.707106781186547,
0.707106781186548));
#1240=DIRECTION('ref_axis',(-1.,-2.28418020339077E-30,1.86517468137026E-14));
#1241=DIRECTION('',(1.43119359920896E-15,-0.707106781186548,-0.707106781186547));
#1242=DIRECTION('center_axis',(1.2874758161207E-14,0.707106781186546,0.707106781186549));
#1243=DIRECTION('ref_axis',(-1.,-2.2297949604529E-30,1.82076576038526E-14));
#1244=DIRECTION('',(1.43119359920896E-15,-0.707106781186549,0.707106781186546));
#1245=DIRECTION('center_axis',(-1.,-2.02401339838287E-15,-2.47870152976094E-31));
#1246=DIRECTION('ref_axis',(0.,1.22464679914735E-16,-1.));
#1247=CARTESIAN_POINT('',(0.,0.,0.));
#1248=CARTESIAN_POINT('Origin',(368.5,89.9876765014288,-38.));
#1249=CARTESIAN_POINT('',(213.35,45.4876765014283,-38.));
#1250=CARTESIAN_POINT('Origin',(211.,45.4876765014283,-38.));
#1251=CARTESIAN_POINT('Origin',(368.5,89.9876765014288,-38.));
#1252=CARTESIAN_POINT('',(363.35,131.487676501429,-38.));
#1253=CARTESIAN_POINT('Origin',(361.,131.487676501429,-38.));
#1254=CARTESIAN_POINT('Origin',(368.5,89.9876765014288,-38.));
#1255=CARTESIAN_POINT('',(363.35,45.487676501429,-38.));
#1256=CARTESIAN_POINT('Origin',(361.,45.487676501429,-38.));
#1257=CARTESIAN_POINT('Origin',(368.5,89.9876765014288,-38.));
#1258=CARTESIAN_POINT('',(213.35,131.487676501428,-38.));
#1259=CARTESIAN_POINT('Origin',(211.,131.487676501428,-38.));
#1260=CARTESIAN_POINT('Origin',(361.,131.487676501429,-41.5));
#1261=CARTESIAN_POINT('',(368.,131.487676501429,-40.));
#1262=CARTESIAN_POINT('Origin',(361.,131.487676501429,-40.));
#1263=CARTESIAN_POINT('',(366.,131.487676501429,-43.));
#1264=CARTESIAN_POINT('',(367.,131.487676501429,-41.5));
#1265=CARTESIAN_POINT('Origin',(361.,131.487676501429,-43.));
#1266=CARTESIAN_POINT('Origin',(368.5,89.9876765014288,-40.));
#1267=CARTESIAN_POINT('',(355.5,152.975353002856,-40.));
#1268=CARTESIAN_POINT('',(368.5,152.975353002857,-40.));
#1269=CARTESIAN_POINT('',(363.499999999999,152.975353002857,-40.));
#1270=CARTESIAN_POINT('',(368.5,24.0000000000004,-40.));
#1271=CARTESIAN_POINT('',(368.5,89.9876765014288,-40.));
#1272=CARTESIAN_POINT('',(355.5,24.0000000000006,-40.));
#1273=CARTESIAN_POINT('',(373.5,24.0000000000003,-40.));
#1274=CARTESIAN_POINT('',(355.5,11.,-40.));
#1275=CARTESIAN_POINT('',(355.5,55.4938382507147,-40.));
#1276=CARTESIAN_POINT('',(216.5,11.,-40.));
#1277=CARTESIAN_POINT('',(529.977762574176,11.,-40.));
#1278=CARTESIAN_POINT('',(216.5,24.0000000000004,-40.));
#1279=CARTESIAN_POINT('',(216.5,48.993838250714,-40.));
#1280=CARTESIAN_POINT('',(203.5,24.0000000000002,-40.));
#1281=CARTESIAN_POINT('',(291.000000000001,24.0000000000018,-40.));
#1282=CARTESIAN_POINT('',(203.5,152.975353002856,-40.));
#1283=CARTESIAN_POINT('',(203.5,89.9876765014285,-40.));
#1284=CARTESIAN_POINT('',(216.5,152.975353002856,-40.));
#1285=CARTESIAN_POINT('',(281.000000000001,152.975353002855,-40.));
#1286=CARTESIAN_POINT('',(216.5,165.975353002857,-40.));
#1287=CARTESIAN_POINT('',(216.499999999999,122.981514752144,-40.));
#1288=CARTESIAN_POINT('',(355.5,165.975353002857,-40.));
#1289=CARTESIAN_POINT('',(188.25,165.975353002857,-40.));
#1290=CARTESIAN_POINT('',(355.5,129.481514752143,-40.));
#1291=CARTESIAN_POINT('',(218.,131.487676501428,-40.));
#1292=CARTESIAN_POINT('Origin',(211.,131.487676501428,-40.));
#1293=CARTESIAN_POINT('',(368.,45.487676501429,-40.));
#1294=CARTESIAN_POINT('Origin',(361.,45.487676501429,-40.));
#1295=CARTESIAN_POINT('',(218.,45.4876765014284,-40.));
#1296=CARTESIAN_POINT('Origin',(211.,45.4876765014283,-40.));
#1297=CARTESIAN_POINT('Origin',(211.,131.487676501428,-41.5));
#1298=CARTESIAN_POINT('',(216.,131.487676501428,-43.));
#1299=CARTESIAN_POINT('',(217.,131.487676501428,-41.5));
#1300=CARTESIAN_POINT('Origin',(211.,131.487676501428,-43.));
#1301=CARTESIAN_POINT('Origin',(211.,45.4876765014283,-41.5));
#1302=CARTESIAN_POINT('',(216.,45.4876765014284,-43.));
#1303=CARTESIAN_POINT('',(217.,45.4876765014283,-41.5));
#1304=CARTESIAN_POINT('Origin',(211.,45.4876765014283,-43.));
#1305=CARTESIAN_POINT('Origin',(361.,45.487676501429,-41.5));
#1306=CARTESIAN_POINT('',(366.,45.487676501429,-43.));
#1307=CARTESIAN_POINT('',(367.,45.487676501429,-41.5));
#1308=CARTESIAN_POINT('Origin',(361.,45.487676501429,-43.));
#1309=CARTESIAN_POINT('Origin',(361.,131.487676501429,-40.));
#1310=CARTESIAN_POINT('',(363.35,131.487676501429,-43.));
#1311=CARTESIAN_POINT('Origin',(361.,131.487676501429,-43.));
#1312=CARTESIAN_POINT('',(363.35,131.487676501429,-40.));
#1313=CARTESIAN_POINT('Origin',(361.,131.487676501429,-43.));
#1314=CARTESIAN_POINT('Origin',(211.,45.4876765014283,-40.));
#1315=CARTESIAN_POINT('',(213.35,45.4876765014283,-43.));
#1316=CARTESIAN_POINT('Origin',(211.,45.4876765014283,-43.));
#1317=CARTESIAN_POINT('',(213.35,45.4876765014283,-40.));
#1318=CARTESIAN_POINT('Origin',(211.,45.4876765014283,-43.));
#1319=CARTESIAN_POINT('Origin',(361.,45.487676501429,-40.));
#1320=CARTESIAN_POINT('',(363.35,45.487676501429,-43.));
#1321=CARTESIAN_POINT('Origin',(361.,45.487676501429,-43.));
#1322=CARTESIAN_POINT('',(363.35,45.487676501429,-40.));
#1323=CARTESIAN_POINT('Origin',(361.,45.487676501429,-43.));
#1324=CARTESIAN_POINT('Origin',(211.,131.487676501428,-40.));
#1325=CARTESIAN_POINT('',(213.35,131.487676501428,-43.));
#1326=CARTESIAN_POINT('Origin',(211.,131.487676501428,-43.));
#1327=CARTESIAN_POINT('',(213.35,131.487676501428,-40.));
#1328=CARTESIAN_POINT('Origin',(211.,131.487676501428,-43.));
#1329=CARTESIAN_POINT('Origin',(368.5,89.9876765014288,-57.9));
#1330=CARTESIAN_POINT('',(368.5,175.975353002857,-36.));
#1331=CARTESIAN_POINT('',(368.5,4.00000000000031,-36.));
#1332=CARTESIAN_POINT('',(368.5,89.9876765014288,-36.));
#1333=CARTESIAN_POINT('',(368.5,3.00000000000029,-37.));
#1334=CARTESIAN_POINT('',(368.5,19.7719191253577,-20.2280808746429));
#1335=CARTESIAN_POINT('',(368.5,3.00000000000029,-79.8));
#1336=CARTESIAN_POINT('',(368.5,3.00000000000029,-48.95));
#1337=CARTESIAN_POINT('',(368.5,21.0000000000004,-79.8));
#1338=CARTESIAN_POINT('',(368.5,65.7376765014287,-79.8));
#1339=CARTESIAN_POINT('',(368.5,21.0000000000004,-43.));
#1340=CARTESIAN_POINT('',(368.5,21.0000000000004,-48.95));
#1341=CARTESIAN_POINT('',(368.5,35.2719191253575,-28.7280808746429));
#1342=CARTESIAN_POINT('',(368.5,155.975353002857,-43.));
#1343=CARTESIAN_POINT('',(368.5,142.4534338775,-29.478080874643));
#1344=CARTESIAN_POINT('',(368.5,155.975353002857,-60.));
#1345=CARTESIAN_POINT('',(368.5,155.975353002857,-48.95));
#1346=CARTESIAN_POINT('',(368.5,176.975353002857,-60.));
#1347=CARTESIAN_POINT('',(368.5,109.731514752143,-60.));
#1348=CARTESIAN_POINT('',(368.5,176.975353002857,-37.));
#1349=CARTESIAN_POINT('',(368.5,176.975353002857,-48.95));
#1350=CARTESIAN_POINT('',(368.5,160.2034338775,-20.228080874643));
#1351=CARTESIAN_POINT('',(368.5,11.1,-49.95));
#1352=CARTESIAN_POINT('Origin',(368.5,14.5,-49.95));
#1353=CARTESIAN_POINT('',(368.5,11.1,-69.85));
#1354=CARTESIAN_POINT('Origin',(368.5,14.5,-69.85));
#1355=CARTESIAN_POINT('',(368.5,159.075353002857,-50.));
#1356=CARTESIAN_POINT('Origin',(368.5,162.475353002857,-50.));
#1357=CARTESIAN_POINT('Origin',(363.499999999999,154.475353002857,-41.5));
#1358=CARTESIAN_POINT('',(358.5,155.975353002856,-43.));
#1359=CARTESIAN_POINT('',(355.5,152.975353002856,-40.));
#1360=CARTESIAN_POINT('',(363.499999999999,155.975353002856,-43.));
#1361=CARTESIAN_POINT('Origin',(358.5,155.975353002856,-40.));
#1362=CARTESIAN_POINT('',(358.5,155.975353002856,-60.));
#1363=CARTESIAN_POINT('',(358.5,155.975353002856,-40.));
#1364=CARTESIAN_POINT('',(363.5,155.975353002856,-60.));
#1365=CARTESIAN_POINT('Origin',(368.5,129.475353002857,-60.));
#1366=CARTESIAN_POINT('',(358.5,168.975353002857,-60.));
#1367=CARTESIAN_POINT('',(358.5,165.725353002857,-60.));
#1368=CARTESIAN_POINT('',(213.5,168.975353002857,-60.));
#1369=CARTESIAN_POINT('',(188.25,168.975353002857,-60.));
#1370=CARTESIAN_POINT('',(213.5,155.975353002856,-60.));
#1371=CARTESIAN_POINT('',(213.5,159.225353002858,-60.));
#1372=CARTESIAN_POINT('',(203.5,155.975353002856,-60.));
#1373=CARTESIAN_POINT('',(281.,155.975353002855,-60.));
#1374=CARTESIAN_POINT('',(203.5,176.975353002857,-60.));
#1375=CARTESIAN_POINT('',(203.5,109.731514752143,-60.));
#1376=CARTESIAN_POINT('',(552.75,176.975353002857,-60.));
#1377=CARTESIAN_POINT('Origin',(-10.,176.975353002857,-40.));
#1378=CARTESIAN_POINT('',(203.5,176.975353002857,-37.));
#1379=CARTESIAN_POINT('',(203.5,176.975353002857,-49.25));
#1380=CARTESIAN_POINT('',(179.25,176.975353002857,-37.));
#1381=CARTESIAN_POINT('Origin',(179.25,176.475353002857,-36.5));
#1382=CARTESIAN_POINT('',(203.5,175.975353002857,-36.));
#1383=CARTESIAN_POINT('',(203.5,160.3534338775,-20.3780808746429));
#1384=CARTESIAN_POINT('',(179.25,175.975353002857,-36.));
#1385=CARTESIAN_POINT('Origin',(691.455525148351,7.99999999999997,-40.));
#1386=CARTESIAN_POINT('',(213.5,7.99999999999997,-43.));
#1387=CARTESIAN_POINT('',(358.5,7.99999999999997,-43.));
#1388=CARTESIAN_POINT('',(529.977762574176,7.99999999999997,-43.));
#1389=CARTESIAN_POINT('',(358.5,8.00000000000015,-79.8));
#1390=CARTESIAN_POINT('',(358.5,7.99999999999997,-40.));
#1391=CARTESIAN_POINT('',(213.5,8.00000000000001,-79.8));
#1392=CARTESIAN_POINT('',(529.977762574176,7.99999999999997,-79.8));
#1393=CARTESIAN_POINT('',(213.5,7.99999999999997,-40.));
#1394=CARTESIAN_POINT('Origin',(213.5,8.00000000000001,-40.));
#1395=CARTESIAN_POINT('',(213.5,21.0000000000004,-43.));
#1396=CARTESIAN_POINT('',(213.5,48.993838250714,-43.));
#1397=CARTESIAN_POINT('',(213.5,21.0000000000004,-79.8));
#1398=CARTESIAN_POINT('',(213.5,11.2499999999998,-79.8));
#1399=CARTESIAN_POINT('',(213.5,21.0000000000004,-40.));
#1400=CARTESIAN_POINT('',(213.5,11.1,-49.95));
#1401=CARTESIAN_POINT('Origin',(213.5,14.5,-49.95));
#1402=CARTESIAN_POINT('',(213.5,11.1,-69.85));
#1403=CARTESIAN_POINT('Origin',(213.5,14.5,-69.85));
#1404=CARTESIAN_POINT('Origin',(378.5,21.0000000000003,-40.));
#1405=CARTESIAN_POINT('',(358.5,21.0000000000006,-79.8));
#1406=CARTESIAN_POINT('',(373.5,21.0000000000003,-79.8));
#1407=CARTESIAN_POINT('',(358.5,21.0000000000006,-43.));
#1408=CARTESIAN_POINT('',(358.5,21.0000000000006,-40.));
#1409=CARTESIAN_POINT('',(373.5,21.0000000000003,-43.));
#1410=CARTESIAN_POINT('Origin',(358.5,21.0000000000006,-40.));
#1411=CARTESIAN_POINT('',(358.5,55.4938382507147,-43.));
#1412=CARTESIAN_POINT('',(358.5,17.7500000000006,-79.8));
#1413=CARTESIAN_POINT('',(358.5,11.1,-49.95));
#1414=CARTESIAN_POINT('Origin',(358.5,14.5,-49.95));
#1415=CARTESIAN_POINT('',(358.5,11.1,-69.85));
#1416=CARTESIAN_POINT('Origin',(358.5,14.5,-69.85));
#1417=CARTESIAN_POINT('Origin',(213.5,155.975353002856,-40.));
#1418=CARTESIAN_POINT('',(213.5,168.975353002857,-43.));
#1419=CARTESIAN_POINT('',(213.5,155.975353002856,-43.));
#1420=CARTESIAN_POINT('',(213.499999999999,122.981514752144,-43.));
#1421=CARTESIAN_POINT('',(213.5,155.975353002856,-40.));
#1422=CARTESIAN_POINT('',(213.5,168.975353002857,-40.));
#1423=CARTESIAN_POINT('',(213.5,159.075353002857,-50.));
#1424=CARTESIAN_POINT('Origin',(213.5,162.475353002857,-50.));
#1425=CARTESIAN_POINT('Origin',(193.5,155.975353002857,-40.));
#1426=CARTESIAN_POINT('',(203.5,155.975353002856,-43.));
#1427=CARTESIAN_POINT('',(203.5,155.975353002856,-49.25));
#1428=CARTESIAN_POINT('',(281.000000000001,155.975353002855,-43.));
#1429=CARTESIAN_POINT('Origin',(7.99999999999997,168.975353002857,-40.));
#1430=CARTESIAN_POINT('',(358.5,168.975353002857,-43.));
#1431=CARTESIAN_POINT('',(188.25,168.975353002857,-43.));
#1432=CARTESIAN_POINT('',(358.5,168.975353002857,-40.));
#1433=CARTESIAN_POINT('Origin',(358.5,168.975353002857,-40.));
#1434=CARTESIAN_POINT('',(358.5,129.481514752143,-43.));
#1435=CARTESIAN_POINT('',(358.5,159.075353002857,-50.));
#1436=CARTESIAN_POINT('Origin',(358.5,162.475353002857,-50.));
#1437=CARTESIAN_POINT('Origin',(193.5,162.475353002857,-50.));
#1438=CARTESIAN_POINT('',(193.5,159.075353002857,-50.));
#1439=CARTESIAN_POINT('Origin',(193.5,162.475353002857,-50.));
#1440=CARTESIAN_POINT('',(203.5,159.075353002857,-50.));
#1441=CARTESIAN_POINT('Origin',(203.5,162.475353002857,-50.));
#1442=CARTESIAN_POINT('',(193.5,159.075353002857,-50.));
#1443=CARTESIAN_POINT('Origin',(193.5,14.5,-69.85));
#1444=CARTESIAN_POINT('',(193.5,11.1,-69.85));
#1445=CARTESIAN_POINT('Origin',(193.5,14.5,-69.85));
#1446=CARTESIAN_POINT('',(203.5,11.1,-69.85));
#1447=CARTESIAN_POINT('Origin',(203.5,14.5,-69.85));
#1448=CARTESIAN_POINT('',(193.5,11.1,-69.85));
#1449=CARTESIAN_POINT('Origin',(193.5,14.5,-49.95));
#1450=CARTESIAN_POINT('',(193.5,11.1,-49.95));
#1451=CARTESIAN_POINT('Origin',(193.5,14.5,-49.95));
#1452=CARTESIAN_POINT('',(203.5,11.1,-49.95));
#1453=CARTESIAN_POINT('Origin',(203.5,14.5,-49.95));
#1454=CARTESIAN_POINT('',(193.5,11.1,-49.95));
#1455=CARTESIAN_POINT('Origin',(368.5,89.9876765014288,-36.));
#1456=CARTESIAN_POINT('',(203.5,4.00000000000038,-36.));
#1457=CARTESIAN_POINT('',(203.5,89.9876765014285,-36.));
#1458=CARTESIAN_POINT('',(528.656247870601,4.00000000000023,-36.));
#1459=CARTESIAN_POINT('Origin',(528.656247870601,3.50000000000023,-36.5));
#1460=CARTESIAN_POINT('',(203.5,3.00000000000036,-37.));
#1461=CARTESIAN_POINT('',(203.5,19.6219191253576,-20.3780808746431));
#1462=CARTESIAN_POINT('',(528.656247870601,3.00000000000022,-37.));
#1463=CARTESIAN_POINT('Origin',(357.,129.481514752143,-41.5));
#1464=CARTESIAN_POINT('',(355.5,165.975353002857,-40.));
#1465=CARTESIAN_POINT('Origin',(188.25,167.475353002857,-41.5));
#1466=CARTESIAN_POINT('',(216.5,165.975353002857,-40.));
#1467=CARTESIAN_POINT('Origin',(214.999999999999,122.981514752144,-41.5));
#1468=CARTESIAN_POINT('',(216.5,152.975353002856,-40.));
#1469=CARTESIAN_POINT('Origin',(373.5,22.5000000000003,-41.5));
#1470=CARTESIAN_POINT('',(358.5,21.0000000000006,-43.));
#1471=CARTESIAN_POINT('Origin',(215.,48.993838250714,-41.5));
#1472=CARTESIAN_POINT('',(216.5,11.,-40.));
#1473=CARTESIAN_POINT('',(216.5,24.0000000000004,-40.));
#1474=CARTESIAN_POINT('Origin',(529.977762574176,9.49999999999999,-41.5));
#1475=CARTESIAN_POINT('',(355.5,11.,-40.));
#1476=CARTESIAN_POINT('Origin',(357.,55.4938382507147,-41.5));
#1477=CARTESIAN_POINT('Origin',(688.812495741203,3.00000000000015,-40.));
#1478=CARTESIAN_POINT('',(203.5,3.00000000000036,-79.8));
#1479=CARTESIAN_POINT('',(203.5,3.00000000000036,-49.25));
#1480=CARTESIAN_POINT('',(528.656247870601,3.00000000000022,-79.8));
#1481=CARTESIAN_POINT('Origin',(368.5,41.4876765014286,-79.8));
#1482=CARTESIAN_POINT('',(203.5,21.0000000000002,-79.8));
#1483=CARTESIAN_POINT('',(203.5,65.7376765014284,-79.8));
#1484=CARTESIAN_POINT('',(291.,21.0000000000018,-79.8));
#1485=CARTESIAN_POINT('Origin',(213.5,21.0000000000004,-40.));
#1486=CARTESIAN_POINT('',(203.5,21.0000000000002,-43.));
#1487=CARTESIAN_POINT('',(203.5,21.0000000000002,-49.25));
#1488=CARTESIAN_POINT('',(291.000000000001,21.0000000000018,-43.));
#1489=CARTESIAN_POINT('Origin',(291.000000000001,22.5000000000018,-41.5));
#1490=CARTESIAN_POINT('',(203.5,35.1219191253577,-28.8780808746425));
#1491=CARTESIAN_POINT('Origin',(281.000000000001,154.475353002855,-41.5));
#1492=CARTESIAN_POINT('',(203.5,142.603433877499,-29.6280808746426));
#1493=CARTESIAN_POINT('Origin',(203.5,89.9876765014285,-58.5));
#1494=UNCERTAINTY_MEASURE_WITH_UNIT(LENGTH_MEASURE(0.01),#1498,
'DISTANCE_ACCURACY_VALUE',
'Maximum model space distance between geometric entities at asserted c
onnectivities');
#1495=UNCERTAINTY_MEASURE_WITH_UNIT(LENGTH_MEASURE(0.01),#1498,
'DISTANCE_ACCURACY_VALUE',
'Maximum model space distance between geometric entities at asserted c
onnectivities');
#1496=(
GEOMETRIC_REPRESENTATION_CONTEXT(3)
GLOBAL_UNCERTAINTY_ASSIGNED_CONTEXT((#1494))
GLOBAL_UNIT_ASSIGNED_CONTEXT((#1498,#1500,#1501))
REPRESENTATION_CONTEXT('','3D')
);
#1497=(
GEOMETRIC_REPRESENTATION_CONTEXT(3)
GLOBAL_UNCERTAINTY_ASSIGNED_CONTEXT((#1495))
GLOBAL_UNIT_ASSIGNED_CONTEXT((#1498,#1500,#1501))
REPRESENTATION_CONTEXT('','3D')
);
#1498=(
LENGTH_UNIT()
NAMED_UNIT(*)
SI_UNIT(.MILLI.,.METRE.)
);
#1499=(
LENGTH_UNIT()
NAMED_UNIT(*)
SI_UNIT($,.METRE.)
);
#1500=(
NAMED_UNIT(*)
PLANE_ANGLE_UNIT()
SI_UNIT($,.RADIAN.)
);
#1501=(
NAMED_UNIT(*)
SI_UNIT($,.STERADIAN.)
SOLID_ANGLE_UNIT()
);
#1502=SHAPE_DEFINITION_REPRESENTATION(#1503,#1504);
#1503=PRODUCT_DEFINITION_SHAPE('',$,#1506);
#1504=SHAPE_REPRESENTATION('',(#914),#1496);
#1505=PRODUCT_DEFINITION_CONTEXT('part definition',#1510,'design');
#1506=PRODUCT_DEFINITION('R_case_center','R_case_center',#1507,#1505);
#1507=PRODUCT_DEFINITION_FORMATION('',$,#1512);
#1508=PRODUCT_RELATED_PRODUCT_CATEGORY('R_case_center','R_case_center',
(#1512));
#1509=APPLICATION_PROTOCOL_DEFINITION('international standard',
'automotive_design',2009,#1510);
#1510=APPLICATION_CONTEXT(
'Core Data for Automotive Mechanical Design Process');
#1511=PRODUCT_CONTEXT('part definition',#1510,'mechanical');
#1512=PRODUCT('R_case_center','R_case_center',$,(#1511));
#1513=PRESENTATION_STYLE_ASSIGNMENT((#1514));
#1514=SURFACE_STYLE_USAGE(.BOTH.,#1515);
#1515=SURFACE_SIDE_STYLE('',(#1516));
#1516=SURFACE_STYLE_FILL_AREA(#1517);
#1517=FILL_AREA_STYLE('Steel - Satin',(#1518));
#1518=FILL_AREA_STYLE_COLOUR('Steel - Satin',#1519);
#1519=COLOUR_RGB('Steel - Satin',0.627450980392157,0.627450980392157,0.627450980392157);
ENDSEC;
END-ISO-10303-21;
